<svg xmlns="http://www.w3.org/2000/svg" xmlns:xlink="http://www.w3.org/1999/xlink" xmlns:lucid="lucid" width="1302" height="1175"><g transform="translate(-458 -185)" lucid:page-tab-id="HWEp-vi-RSFO"><path d="M580 251h400v499H580z" stroke="#333" stroke-width="2" fill="#fff"/><path d="M580 288.6h400M580 476.3h400" stroke="#333" stroke-width="2" fill="none"/><use xlink:href="#a" transform="matrix(1,0,0,1,588,258.9999999999999) translate(123.6 14.6)"/><use xlink:href="#b" transform="matrix(1,0,0,1,592,296.5999999999999) translate(0 24.800000000000004)"/><use xlink:href="#c" transform="matrix(1,0,0,1,592,296.5999999999999) translate(15.5 24.800000000000004)"/><use xlink:href="#b" transform="matrix(1,0,0,1,592,296.5999999999999) translate(0 46.400000000000006)"/><use xlink:href="#d" transform="matrix(1,0,0,1,592,296.5999999999999) translate(15.5 46.400000000000006)"/><use xlink:href="#b" transform="matrix(1,0,0,1,592,296.5999999999999) translate(0 68.00000000000001)"/><use xlink:href="#e" transform="matrix(1,0,0,1,592,296.5999999999999) translate(15.5 68.00000000000001)"/><use xlink:href="#b" transform="matrix(1,0,0,1,592,296.5999999999999) translate(0 89.60000000000002)"/><use xlink:href="#f" transform="matrix(1,0,0,1,592,296.5999999999999) translate(15.5 89.60000000000002)"/><use xlink:href="#b" transform="matrix(1,0,0,1,592,296.5999999999999) translate(0 111.20000000000002)"/><use xlink:href="#g" transform="matrix(1,0,0,1,592,296.5999999999999) translate(15.5 111.20000000000002)"/><use xlink:href="#b" transform="matrix(1,0,0,1,592,296.5999999999999) translate(0 132.8)"/><use xlink:href="#h" transform="matrix(1,0,0,1,592,296.5999999999999) translate(15.5 132.8)"/><use xlink:href="#i" transform="matrix(1,0,0,1,592,296.5999999999999) translate(116.35000000000001 132.8)"/><use xlink:href="#j" transform="matrix(1,0,0,1,592,296.5999999999999) translate(131.85000000000002 132.8)"/><use xlink:href="#b" transform="matrix(1,0,0,1,592,296.5999999999999) translate(0 154.4)"/><use xlink:href="#k" transform="matrix(1,0,0,1,592,296.5999999999999) translate(15.5 154.4)"/><use xlink:href="#b" transform="matrix(1,0,0,1,592,484.2999999999999) translate(0 25.100000000000016)"/><use xlink:href="#l" transform="matrix(1,0,0,1,592,484.2999999999999) translate(15.5 25.100000000000016)"/><use xlink:href="#m" transform="matrix(1,0,0,1,592,484.2999999999999) translate(139.3 25.100000000000016)"/><use xlink:href="#n" transform="matrix(1,0,0,1,592,484.2999999999999) translate(163.25 25.100000000000016)"/><use xlink:href="#b" transform="matrix(1,0,0,1,592,484.2999999999999) translate(0 46.70000000000002)"/><use xlink:href="#o" transform="matrix(1,0,0,1,592,484.2999999999999) translate(15.5 46.70000000000002)"/><use xlink:href="#b" transform="matrix(1,0,0,1,592,484.2999999999999) translate(0 68.30000000000003)"/><use xlink:href="#p" transform="matrix(1,0,0,1,592,484.2999999999999) translate(15.5 68.30000000000003)"/><use xlink:href="#b" transform="matrix(1,0,0,1,592,484.2999999999999) translate(0 89.90000000000003)"/><use xlink:href="#q" transform="matrix(1,0,0,1,592,484.2999999999999) translate(15.5 89.90000000000003)"/><use xlink:href="#b" transform="matrix(1,0,0,1,592,484.2999999999999) translate(0 111.50000000000003)"/><use xlink:href="#r" transform="matrix(1,0,0,1,592,484.2999999999999) translate(15.5 111.50000000000003)"/><use xlink:href="#b" transform="matrix(1,0,0,1,592,484.2999999999999) translate(0 133.10000000000002)"/><use xlink:href="#s" transform="matrix(1,0,0,1,592,484.2999999999999) translate(15.5 133.10000000000002)"/><use xlink:href="#b" transform="matrix(1,0,0,1,592,484.2999999999999) translate(0 154.70000000000002)"/><use xlink:href="#t" transform="matrix(1,0,0,1,592,484.2999999999999) translate(15.5 154.70000000000002)"/><use xlink:href="#b" transform="matrix(1,0,0,1,592,484.2999999999999) translate(0 176.3)"/><use xlink:href="#u" transform="matrix(1,0,0,1,592,484.2999999999999) translate(15.5 176.3)"/><use xlink:href="#v" transform="matrix(1,0,0,1,592,484.2999999999999) translate(297.04999999999995 176.3)"/><use xlink:href="#b" transform="matrix(1,0,0,1,592,484.2999999999999) translate(0 197.9)"/><use xlink:href="#w" transform="matrix(1,0,0,1,592,484.2999999999999) translate(15.5 197.9)"/><use xlink:href="#b" transform="matrix(1,0,0,1,592,484.2999999999999) translate(0 219.5)"/><use xlink:href="#x" transform="matrix(1,0,0,1,592,484.2999999999999) translate(15.5 219.5)"/><use xlink:href="#y" transform="matrix(1,0,0,1,592,484.2999999999999) translate(247.14999999999998 219.5)"/><use xlink:href="#b" transform="matrix(1,0,0,1,592,484.2999999999999) translate(0 241.1)"/><use xlink:href="#z" transform="matrix(1,0,0,1,592,484.2999999999999) translate(15.5 241.1)"/><path d="M1180 240h460v521h-460z" stroke="#333" stroke-width="2" fill="#fff"/><path d="M1180 277.6h460m-460 144.5h460" stroke="#333" stroke-width="2" fill="none"/><g><use xlink:href="#A" transform="matrix(1,0,0,1,1188,248) translate(192.075 14.6)"/></g><g><use xlink:href="#b" transform="matrix(1,0,0,1,1192,285.6) translate(0 24.89999999999999)"/><use xlink:href="#B" transform="matrix(1,0,0,1,1192,285.6) translate(15.5 24.89999999999999)"/><use xlink:href="#i" transform="matrix(1,0,0,1,1192,285.6) translate(114.4 24.89999999999999)"/><use xlink:href="#j" transform="matrix(1,0,0,1,1192,285.6) translate(129.9 24.89999999999999)"/><use xlink:href="#b" transform="matrix(1,0,0,1,1192,285.6) translate(0 46.49999999999999)"/><use xlink:href="#d" transform="matrix(1,0,0,1,1192,285.6) translate(15.5 46.49999999999999)"/><use xlink:href="#b" transform="matrix(1,0,0,1,1192,285.6) translate(0 68.1)"/><use xlink:href="#f" transform="matrix(1,0,0,1,1192,285.6) translate(15.5 68.1)"/><use xlink:href="#b" transform="matrix(1,0,0,1,1192,285.6) translate(0 89.70000000000002)"/><use xlink:href="#e" transform="matrix(1,0,0,1,1192,285.6) translate(15.5 89.70000000000002)"/><use xlink:href="#b" transform="matrix(1,0,0,1,1192,285.6) translate(0 111.30000000000001)"/><use xlink:href="#C" transform="matrix(1,0,0,1,1192,285.6) translate(15.5 111.30000000000001)"/></g><g><use xlink:href="#b" transform="matrix(1,0,0,1,1192,430.1) translate(0 24.70000000000001)"/><use xlink:href="#D" transform="matrix(1,0,0,1,1192,430.1) translate(15.5 24.70000000000001)"/><use xlink:href="#E" transform="matrix(1,0,0,1,1192,430.1) translate(108.30000000000001 24.70000000000001)"/><use xlink:href="#F" transform="matrix(1,0,0,1,1192,430.1) translate(166.20000000000002 24.70000000000001)"/><use xlink:href="#G" transform="matrix(1,0,0,1,1192,430.1) translate(207.15000000000003 24.70000000000001)"/><use xlink:href="#H" transform="matrix(1,0,0,1,1192,430.1) translate(262.1 24.70000000000001)"/><use xlink:href="#b" transform="matrix(1,0,0,1,1192,430.1) translate(0 46.30000000000001)"/><use xlink:href="#I" transform="matrix(1,0,0,1,1192,430.1) translate(15.5 46.30000000000001)"/><use xlink:href="#b" transform="matrix(1,0,0,1,1192,430.1) translate(0 67.90000000000002)"/><use xlink:href="#J" transform="matrix(1,0,0,1,1192,430.1) translate(15.5 67.90000000000002)"/><use xlink:href="#b" transform="matrix(1,0,0,1,1192,430.1) translate(0 89.50000000000003)"/><use xlink:href="#K" transform="matrix(1,0,0,1,1192,430.1) translate(15.5 89.50000000000003)"/><use xlink:href="#L" transform="matrix(1,0,0,1,1192,430.1) translate(188.3 89.50000000000003)"/><use xlink:href="#b" transform="matrix(1,0,0,1,1192,430.1) translate(0 111.10000000000002)"/><use xlink:href="#M" transform="matrix(1,0,0,1,1192,430.1) translate(15.5 111.10000000000002)"/><use xlink:href="#N" transform="matrix(1,0,0,1,1192,430.1) translate(179.3 111.10000000000002)"/><use xlink:href="#O" transform="matrix(1,0,0,1,1192,430.1) translate(239.3 111.10000000000002)"/><use xlink:href="#P" transform="matrix(1,0,0,1,1192,430.1) translate(320.25 111.10000000000002)"/><use xlink:href="#b" transform="matrix(1,0,0,1,1192,430.1) translate(0 132.70000000000002)"/><use xlink:href="#Q" transform="matrix(1,0,0,1,1192,430.1) translate(15.5 132.70000000000002)"/><use xlink:href="#b" transform="matrix(1,0,0,1,1192,430.1) translate(0 154.3)"/><use xlink:href="#R" transform="matrix(1,0,0,1,1192,430.1) translate(15.5 154.3)"/><use xlink:href="#S" transform="matrix(1,0,0,1,1192,430.1) translate(172.2 154.3)"/><use xlink:href="#T" transform="matrix(1,0,0,1,1192,430.1) translate(230.14999999999998 154.3)"/><use xlink:href="#b" transform="matrix(1,0,0,1,1192,430.1) translate(0 175.9)"/><use xlink:href="#U" transform="matrix(1,0,0,1,1192,430.1) translate(15.5 175.9)"/><use xlink:href="#b" transform="matrix(1,0,0,1,1192,430.1) translate(0 197.5)"/><use xlink:href="#V" transform="matrix(1,0,0,1,1192,430.1) translate(15.5 197.5)"/><use xlink:href="#b" transform="matrix(1,0,0,1,1192,430.1) translate(0 219.1)"/><use xlink:href="#W" transform="matrix(1,0,0,1,1192,430.1) translate(15.5 219.1)"/><use xlink:href="#b" transform="matrix(1,0,0,1,1192,430.1) translate(0 240.7)"/><use xlink:href="#X" transform="matrix(1,0,0,1,1192,430.1) translate(15.5 240.7)"/><use xlink:href="#b" transform="matrix(1,0,0,1,1192,430.1) translate(0 262.29999999999995)"/><use xlink:href="#Y" transform="matrix(1,0,0,1,1192,430.1) translate(15.5 262.29999999999995)"/><use xlink:href="#b" transform="matrix(1,0,0,1,1192,430.1) translate(0 283.9)"/><use xlink:href="#Z" transform="matrix(1,0,0,1,1192,430.1) translate(15.5 283.9)"/><use xlink:href="#b" transform="matrix(1,0,0,1,1192,430.1) translate(0 305.5)"/><use xlink:href="#z" transform="matrix(1,0,0,1,1192,430.1) translate(15.5 305.5)"/></g><path d="M1110 880h600v435h-600z" stroke="#333" stroke-width="2" fill="#fff"/><path d="M1110 917.6h600m-600 209.3h600" stroke="#333" stroke-width="2" fill="none"/><g><use xlink:href="#aa" transform="matrix(1,0,0,1,1118,888) translate(264.025 14.6)"/></g><g><use xlink:href="#b" transform="matrix(1,0,0,1,1122,925.6) translate(0 25.000000000000007)"/><use xlink:href="#c" transform="matrix(1,0,0,1,1122,925.6) translate(15.5 25.000000000000007)"/><use xlink:href="#b" transform="matrix(1,0,0,1,1122,925.6) translate(0 46.60000000000001)"/><use xlink:href="#d" transform="matrix(1,0,0,1,1122,925.6) translate(15.5 46.60000000000001)"/><use xlink:href="#b" transform="matrix(1,0,0,1,1122,925.6) translate(0 68.20000000000002)"/><use xlink:href="#f" transform="matrix(1,0,0,1,1122,925.6) translate(15.5 68.20000000000002)"/><use xlink:href="#b" transform="matrix(1,0,0,1,1122,925.6) translate(0 89.80000000000003)"/><use xlink:href="#e" transform="matrix(1,0,0,1,1122,925.6) translate(15.5 89.80000000000003)"/><use xlink:href="#b" transform="matrix(1,0,0,1,1122,925.6) translate(0 111.40000000000002)"/><use xlink:href="#ab" transform="matrix(1,0,0,1,1122,925.6) translate(15.5 111.40000000000002)"/><use xlink:href="#b" transform="matrix(1,0,0,1,1122,925.6) translate(0 133)"/><use xlink:href="#ac" transform="matrix(1,0,0,1,1122,925.6) translate(15.5 133)"/><use xlink:href="#b" transform="matrix(1,0,0,1,1122,925.6) translate(0 154.6)"/><use xlink:href="#ad" transform="matrix(1,0,0,1,1122,925.6) translate(15.5 154.6)"/><use xlink:href="#b" transform="matrix(1,0,0,1,1122,925.6) translate(0 176.20000000000002)"/><use xlink:href="#ae" transform="matrix(1,0,0,1,1122,925.6) translate(15.5 176.20000000000002)"/></g><g><use xlink:href="#b" transform="matrix(1,0,0,1,1122,1134.9) translate(0 24.800000000000004)"/><use xlink:href="#l" transform="matrix(1,0,0,1,1122,1134.9) translate(15.5 24.800000000000004)"/><use xlink:href="#af" transform="matrix(1,0,0,1,1122,1134.9) translate(139.3 24.800000000000004)"/><use xlink:href="#m" transform="matrix(1,0,0,1,1122,1134.9) translate(233.3 24.800000000000004)"/><use xlink:href="#E" transform="matrix(1,0,0,1,1122,1134.9) translate(257.25 24.800000000000004)"/><use xlink:href="#F" transform="matrix(1,0,0,1,1122,1134.9) translate(315.15 24.800000000000004)"/><use xlink:href="#ag" transform="matrix(1,0,0,1,1122,1134.9) translate(356.09999999999997 24.800000000000004)"/><use xlink:href="#ah" transform="matrix(1,0,0,1,1122,1134.9) translate(443.94999999999993 24.800000000000004)"/><use xlink:href="#b" transform="matrix(1,0,0,1,1122,1134.9) translate(0 46.400000000000006)"/><use xlink:href="#ai" transform="matrix(1,0,0,1,1122,1134.9) translate(15.5 46.400000000000006)"/><use xlink:href="#b" transform="matrix(1,0,0,1,1122,1134.9) translate(0 68.00000000000001)"/><use xlink:href="#aj" transform="matrix(1,0,0,1,1122,1134.9) translate(15.5 68.00000000000001)"/><use xlink:href="#b" transform="matrix(1,0,0,1,1122,1134.9) translate(0 89.60000000000002)"/><use xlink:href="#K" transform="matrix(1,0,0,1,1122,1134.9) translate(15.5 89.60000000000002)"/><use xlink:href="#L" transform="matrix(1,0,0,1,1122,1134.9) translate(188.3 89.60000000000002)"/><use xlink:href="#b" transform="matrix(1,0,0,1,1122,1134.9) translate(0 111.20000000000002)"/><use xlink:href="#ak" transform="matrix(1,0,0,1,1122,1134.9) translate(15.5 111.20000000000002)"/><use xlink:href="#b" transform="matrix(1,0,0,1,1122,1134.9) translate(0 132.8)"/><use xlink:href="#al" transform="matrix(1,0,0,1,1122,1134.9) translate(15.5 132.8)"/><use xlink:href="#T" transform="matrix(1,0,0,1,1122,1134.9) translate(175.2 132.8)"/><use xlink:href="#b" transform="matrix(1,0,0,1,1122,1134.9) translate(0 154.4)"/><use xlink:href="#z" transform="matrix(1,0,0,1,1122,1134.9) translate(15.5 154.4)"/></g><path d="M520 1020.5h460v154H520z" stroke="#333" stroke-width="2" fill="#fff"/><path d="M520 1058.1h460m-460 58.1h460" stroke="#333" stroke-width="2" fill="none"/><g><use xlink:href="#am" transform="matrix(1,0,0,1,528,1028.5) translate(172.125 14.6)"/></g><g><use xlink:href="#b" transform="matrix(1,0,0,1,532,1066.1) translate(0 25.1)"/><use xlink:href="#an" transform="matrix(1,0,0,1,532,1066.1) translate(15.5 25.1)"/></g><g><use xlink:href="#b" transform="matrix(1,0,0,1,532,1124.1999999999998) translate(0 25.1)"/><use xlink:href="#ao" transform="matrix(1,0,0,1,532,1124.1999999999998) translate(15.5 25.1)"/><use xlink:href="#ap" transform="matrix(1,0,0,1,532,1124.1999999999998) translate(195.39999999999998 25.1)"/></g><path d="M1410 878.5V778.38" stroke="#333" fill="none"/><path d="M1410.5 879h-1v-.5h1z" stroke="#333" stroke-width=".05" fill="#333"/><path d="M1410 763.62l4.64 14.26h-9.28z" stroke="#333" fill="#333"/><path d="M1178.5 500.5H997.38" stroke="#333" fill="none"/><path d="M1179 501h-.5v-1h.5z" stroke="#333" stroke-width=".05" fill="#333"/><path d="M982.62 500.5l14.26-4.64v9.28z" stroke="#333" fill="#333"/><path d="M981.5 1097.5h111.12" stroke="#333" fill="none"/><path d="M981.5 1098h-.5v-1h.5z" stroke="#333" stroke-width=".05" fill="#333"/><path d="M1107.38 1097.5l-14.26 4.64v-9.28z" stroke="#333" fill="#333"/><defs><path fill="#333" d="M128 0H69L1-190h53L99-40l48-150h52" id="aq"/><path fill="#333" d="M25-224v-37h50v37H25zM25 0v-190h50V0H25" id="ar"/><path fill="#333" d="M135-150c-39-12-60 13-60 57V0H25l-1-190h47c2 13-1 29 3 40 6-28 27-53 61-41v41" id="as"/><path fill="#333" d="M115-3C79 11 28 4 28-45v-112H4v-33h27l15-45h31v45h36v33H77v99c-1 23 16 31 38 25v30" id="at"/><path fill="#333" d="M85 4C-2 5 27-109 22-190h50c7 57-23 150 33 157 60-5 35-97 40-157h50l1 190h-47c-2-12 1-28-3-38-12 25-28 42-61 42" id="au"/><path fill="#333" d="M133-34C117-15 103 5 69 4 32 3 11-16 11-54c-1-60 55-63 116-61 1-26-3-47-28-47-18 1-26 9-28 27l-52-2c7-38 36-58 82-57s74 22 75 68l1 82c-1 14 12 18 25 15v27c-30 8-71 5-69-32zm-48 3c29 0 43-24 42-57-32 0-66-3-65 30 0 17 8 27 23 27" id="av"/><path fill="#333" d="M25 0v-261h50V0H25" id="aw"/><path fill="#333" d="M-4 44V30h207v14H-4" id="ax"/><path fill="#333" d="M220-157c-53 9-28 100-34 157h-49v-107c1-27-5-49-29-50C55-147 81-57 75 0H25l-1-190h47c2 12-1 28 3 38 10-53 101-56 108 0 13-22 24-43 59-42 82 1 51 116 57 194h-49v-107c-1-25-5-48-29-50" id="ay"/><path fill="#333" d="M190-63c-7 42-38 67-86 67-59 0-84-38-90-98-12-110 154-137 174-36l-49 2c-2-19-15-32-35-32-30 0-35 28-38 64-6 74 65 87 74 30" id="az"/><path fill="#333" d="M114-157C55-157 80-60 75 0H25v-261h50l-1 109c12-26 28-41 61-42 86-1 58 113 63 194h-50c-7-57 23-157-34-157" id="aA"/><path fill="#333" d="M135-194c87-1 58 113 63 194h-50c-7-57 23-157-34-157-59 0-34 97-39 157H25l-1-190h47c2 12-1 28 3 38 12-26 28-41 61-42" id="aB"/><path fill="#333" d="M185-48c-13 30-37 53-82 52C43 2 14-33 14-96s30-98 90-98c62 0 83 45 84 108H66c0 31 8 55 39 56 18 0 30-7 34-22zm-45-69c5-46-57-63-70-21-2 6-4 13-4 21h74" id="aC"/><g id="a"><use transform="matrix(0.05,0,0,0.05,0,0)" xlink:href="#aq"/><use transform="matrix(0.05,0,0,0.05,10,0)" xlink:href="#ar"/><use transform="matrix(0.05,0,0,0.05,15,0)" xlink:href="#as"/><use transform="matrix(0.05,0,0,0.05,22,0)" xlink:href="#at"/><use transform="matrix(0.05,0,0,0.05,27.950000000000003,0)" xlink:href="#au"/><use transform="matrix(0.05,0,0,0.05,38.9,0)" xlink:href="#av"/><use transform="matrix(0.05,0,0,0.05,48.9,0)" xlink:href="#aw"/><use transform="matrix(0.05,0,0,0.05,53.900000000000006,0)" xlink:href="#ax"/><use transform="matrix(0.05,0,0,0.05,63.900000000000006,0)" xlink:href="#ay"/><use transform="matrix(0.05,0,0,0.05,79.9,0)" xlink:href="#av"/><use transform="matrix(0.05,0,0,0.05,89.9,0)" xlink:href="#az"/><use transform="matrix(0.05,0,0,0.05,99.9,0)" xlink:href="#aA"/><use transform="matrix(0.05,0,0,0.05,110.85000000000001,0)" xlink:href="#ar"/><use transform="matrix(0.05,0,0,0.05,115.85000000000001,0)" xlink:href="#aB"/><use transform="matrix(0.05,0,0,0.05,126.80000000000001,0)" xlink:href="#aC"/></g><path fill="#333" d="M118-107v75H92v-75H18v-26h74v-75h26v75h74v26h-74" id="aD"/><use transform="matrix(0.05,0,0,0.05,0,0)" xlink:href="#aD" id="b"/><path fill="#333" d="M117-194c89-4 53 116 60 194h-32v-121c0-31-8-49-39-48C34-167 62-67 57 0H25l-1-190h30c1 10-1 24 2 32 11-22 29-35 61-36" id="aE"/><path fill="#333" d="M141-36C126-15 110 5 73 4 37 3 15-17 15-53c-1-64 63-63 125-63 3-35-9-54-41-54-24 1-41 7-42 31l-33-3c5-37 33-52 76-52 45 0 72 20 72 64v82c-1 20 7 32 28 27v20c-31 9-61-2-59-35zM48-53c0 20 12 33 32 33 41-3 63-29 60-74-43 2-92-5-92 41" id="aF"/><path fill="#333" d="M210-169c-67 3-38 105-44 169h-31v-121c0-29-5-50-35-48C34-165 62-65 56 0H25l-1-190h30c1 10-1 24 2 32 10-44 99-50 107 0 11-21 27-35 58-36 85-2 47 119 55 194h-31v-121c0-29-5-49-35-48" id="aG"/><path fill="#333" d="M100-194c63 0 86 42 84 106H49c0 40 14 67 53 68 26 1 43-12 49-29l28 8c-11 28-37 45-77 45C44 4 14-33 15-96c1-61 26-98 85-98zm52 81c6-60-76-77-97-28-3 7-6 17-6 28h103" id="aH"/><path fill="#333" d="M33-154v-36h34v36H33zM33 0v-36h34V0H33" id="aI"/><path fill="#333" d="M135-143c-3-34-86-38-87 0 15 53 115 12 119 90S17 21 10-45l28-5c4 36 97 45 98 0-10-56-113-15-118-90-4-57 82-63 122-42 12 7 21 19 24 35" id="aJ"/><path fill="#333" d="M59-47c-2 24 18 29 38 22v24C64 9 27 4 27-40v-127H5v-23h24l9-43h21v43h35v23H59v120" id="aK"/><path fill="#333" d="M114-163C36-179 61-72 57 0H25l-1-190h30c1 12-1 29 2 39 6-27 23-49 58-41v29" id="aL"/><g id="c"><use transform="matrix(0.05,0,0,0.05,0,0)" xlink:href="#aE"/><use transform="matrix(0.05,0,0,0.05,10,0)" xlink:href="#aF"/><use transform="matrix(0.05,0,0,0.05,20,0)" xlink:href="#aG"/><use transform="matrix(0.05,0,0,0.05,34.95,0)" xlink:href="#aH"/><use transform="matrix(0.05,0,0,0.05,44.95,0)" xlink:href="#aI"/><use transform="matrix(0.05,0,0,0.05,49.95,0)" xlink:href="#aJ"/><use transform="matrix(0.05,0,0,0.05,58.95,0)" xlink:href="#aK"/><use transform="matrix(0.05,0,0,0.05,63.95,0)" xlink:href="#aL"/></g><path fill="#333" d="M24-231v-30h32v30H24zM24 0v-190h32V0H24" id="aM"/><path fill="#333" d="M115-194c55 1 70 41 70 98S169 2 115 4C84 4 66-9 55-30l1 105H24l-1-265h31l2 30c10-21 28-34 59-34zm-8 174c40 0 45-34 45-75s-6-73-45-74c-42 0-51 32-51 76 0 43 10 73 51 73" id="aN"/><g id="d"><use transform="matrix(0.05,0,0,0.05,0,0)" xlink:href="#aM"/><use transform="matrix(0.05,0,0,0.05,3.95,0)" xlink:href="#aN"/><use transform="matrix(0.05,0,0,0.05,13.949999999999998,0)" xlink:href="#aI"/><use transform="matrix(0.05,0,0,0.05,18.95,0)" xlink:href="#aJ"/><use transform="matrix(0.05,0,0,0.05,27.950000000000003,0)" xlink:href="#aK"/><use transform="matrix(0.05,0,0,0.05,32.95,0)" xlink:href="#aL"/></g><path fill="#333" d="M100-194c62-1 85 37 85 99 1 63-27 99-86 99S16-35 15-95c0-66 28-99 85-99zM99-20c44 1 53-31 53-75 0-43-8-75-51-75s-53 32-53 75 10 74 51 75" id="aO"/><g id="e"><use transform="matrix(0.05,0,0,0.05,0,0)" xlink:href="#aN"/><use transform="matrix(0.05,0,0,0.05,10,0)" xlink:href="#aO"/><use transform="matrix(0.05,0,0,0.05,20,0)" xlink:href="#aL"/><use transform="matrix(0.05,0,0,0.05,25.950000000000003,0)" xlink:href="#aK"/><use transform="matrix(0.05,0,0,0.05,30.950000000000003,0)" xlink:href="#aI"/><use transform="matrix(0.05,0,0,0.05,35.95,0)" xlink:href="#aJ"/><use transform="matrix(0.05,0,0,0.05,44.95,0)" xlink:href="#aK"/><use transform="matrix(0.05,0,0,0.05,49.95,0)" xlink:href="#aL"/></g><path fill="#333" d="M108 0H70L1-190h34L89-25l56-165h34" id="aP"/><path fill="#333" d="M-5 72V49h209v23H-5" id="aQ"/><g id="f"><use transform="matrix(0.05,0,0,0.05,0,0)" xlink:href="#aP"/><use transform="matrix(0.05,0,0,0.05,9,0)" xlink:href="#aG"/><use transform="matrix(0.05,0,0,0.05,23.950000000000003,0)" xlink:href="#aQ"/><use transform="matrix(0.05,0,0,0.05,33.95,0)" xlink:href="#aM"/><use transform="matrix(0.05,0,0,0.05,37.900000000000006,0)" xlink:href="#aN"/><use transform="matrix(0.05,0,0,0.05,47.900000000000006,0)" xlink:href="#aI"/><use transform="matrix(0.05,0,0,0.05,52.900000000000006,0)" xlink:href="#aJ"/><use transform="matrix(0.05,0,0,0.05,61.900000000000006,0)" xlink:href="#aK"/><use transform="matrix(0.05,0,0,0.05,66.9,0)" xlink:href="#aL"/></g><g id="g"><use transform="matrix(0.05,0,0,0.05,0,0)" xlink:href="#aP"/><use transform="matrix(0.05,0,0,0.05,9,0)" xlink:href="#aG"/><use transform="matrix(0.05,0,0,0.05,23.950000000000003,0)" xlink:href="#aQ"/><use transform="matrix(0.05,0,0,0.05,33.95,0)" xlink:href="#aN"/><use transform="matrix(0.05,0,0,0.05,43.95,0)" xlink:href="#aO"/><use transform="matrix(0.05,0,0,0.05,53.95,0)" xlink:href="#aL"/><use transform="matrix(0.05,0,0,0.05,59.900000000000006,0)" xlink:href="#aK"/><use transform="matrix(0.05,0,0,0.05,64.9,0)" xlink:href="#aI"/><use transform="matrix(0.05,0,0,0.05,69.9,0)" xlink:href="#aJ"/><use transform="matrix(0.05,0,0,0.05,78.9,0)" xlink:href="#aK"/><use transform="matrix(0.05,0,0,0.05,83.9,0)" xlink:href="#aL"/></g><path fill="#333" d="M24-231v-30h32v30H24zM-9 49c24 4 33-6 33-30v-209h32V24c2 40-23 58-65 49V49" id="aR"/><path fill="#333" d="M96-169c-40 0-48 33-48 73s9 75 48 75c24 0 41-14 43-38l32 2c-6 37-31 61-74 61-59 0-76-41-82-99-10-93 101-131 147-64 4 7 5 14 7 22l-32 3c-4-21-16-35-41-35" id="aS"/><path fill="#333" d="M85-194c31 0 48 13 60 33l-1-100h32l1 261h-30c-2-10 0-23-3-31C134-8 116 4 85 4 32 4 16-35 15-94c0-66 23-100 70-100zm9 24c-40 0-46 34-46 75 0 40 6 74 45 74 42 0 51-32 51-76 0-42-9-74-50-73" id="aT"/><g id="h"><use transform="matrix(0.05,0,0,0.05,0,0)" xlink:href="#aN"/><use transform="matrix(0.05,0,0,0.05,10,0)" xlink:href="#aL"/><use transform="matrix(0.05,0,0,0.05,15.949999999999998,0)" xlink:href="#aO"/><use transform="matrix(0.05,0,0,0.05,25.950000000000003,0)" xlink:href="#aR"/><use transform="matrix(0.05,0,0,0.05,29.899999999999995,0)" xlink:href="#aH"/><use transform="matrix(0.05,0,0,0.05,39.9,0)" xlink:href="#aS"/><use transform="matrix(0.05,0,0,0.05,48.9,0)" xlink:href="#aK"/><use transform="matrix(0.05,0,0,0.05,53.900000000000006,0)" xlink:href="#aJ"/><use transform="matrix(0.05,0,0,0.05,62.900000000000006,0)" xlink:href="#aI"/><use transform="matrix(0.05,0,0,0.05,67.9,0)" xlink:href="#aT"/><use transform="matrix(0.05,0,0,0.05,77.9,0)" xlink:href="#aM"/><use transform="matrix(0.05,0,0,0.05,81.85000000000001,0)" xlink:href="#aS"/><use transform="matrix(0.05,0,0,0.05,90.85000000000001,0)" xlink:href="#aK"/></g><path fill="#333" d="M18-150v-26h174v26H18zm0 90v-26h174v26H18" id="aU"/><use transform="matrix(0.05,0,0,0.05,0,0)" xlink:href="#aU" id="i"/><path fill="#333" d="M39-94c74 12-11 154 75 146v23c-44 4-70-10-70-52C44-23 55-84 6-82v-22c81 4-7-162 84-157h24v23c-82-15-2 131-75 144" id="aV"/><path fill="#333" d="M76-40C78 24 84 88 6 75V52C86 64 9-79 80-94c-40-6-34-59-34-106 1-29-11-41-40-38v-23c44-4 70 10 70 52 0 47-12 108 38 105v22c-26 1-39 14-38 42" id="aW"/><g id="j"><use transform="matrix(0.05,0,0,0.05,0,0)" xlink:href="#aV"/><use transform="matrix(0.05,0,0,0.05,6,0)" xlink:href="#aW"/></g><path fill="#333" d="M84 4C-5 8 30-112 23-190h32v120c0 31 7 50 39 49 72-2 45-101 50-169h31l1 190h-30c-1-10 1-25-2-33-11 22-28 36-60 37" id="aX"/><path fill="#333" d="M115-194c53 0 69 39 70 98 0 66-23 100-70 100C84 3 66-7 56-30L54 0H23l1-261h32v101c10-23 28-34 59-34zm-8 174c40 0 45-34 45-75 0-40-5-75-45-74-42 0-51 32-51 76 0 43 10 73 51 73" id="aY"/><path fill="#333" d="M24 0v-261h32V0H24" id="aZ"/><g id="k"><use transform="matrix(0.05,0,0,0.05,0,0)" xlink:href="#aJ"/><use transform="matrix(0.05,0,0,0.05,9,0)" xlink:href="#aK"/><use transform="matrix(0.05,0,0,0.05,14,0)" xlink:href="#aF"/><use transform="matrix(0.05,0,0,0.05,24,0)" xlink:href="#aK"/><use transform="matrix(0.05,0,0,0.05,29,0)" xlink:href="#aX"/><use transform="matrix(0.05,0,0,0.05,39,0)" xlink:href="#aJ"/><use transform="matrix(0.05,0,0,0.05,48,0)" xlink:href="#aI"/><use transform="matrix(0.05,0,0,0.05,53,0)" xlink:href="#aY"/><use transform="matrix(0.05,0,0,0.05,63,0)" xlink:href="#aO"/><use transform="matrix(0.05,0,0,0.05,73,0)" xlink:href="#aO"/><use transform="matrix(0.05,0,0,0.05,83,0)" xlink:href="#aZ"/></g><path fill="#333" d="M87 75C49 33 22-17 22-94c0-76 28-126 65-167h31c-38 41-64 92-64 168S80 34 118 75H87" id="ba"/><path fill="#333" d="M68-38c1 34 0 65-14 84H32c9-13 17-26 17-46H33v-38h35" id="bb"/><g id="l"><use transform="matrix(0.05,0,0,0.05,0,0)" xlink:href="#aQ"/><use transform="matrix(0.05,0,0,0.05,10,0)" xlink:href="#aQ"/><use transform="matrix(0.05,0,0,0.05,20,0)" xlink:href="#aM"/><use transform="matrix(0.05,0,0,0.05,23.95,0)" xlink:href="#aE"/><use transform="matrix(0.05,0,0,0.05,33.95,0)" xlink:href="#aM"/><use transform="matrix(0.05,0,0,0.05,37.900000000000006,0)" xlink:href="#aK"/><use transform="matrix(0.05,0,0,0.05,42.900000000000006,0)" xlink:href="#aQ"/><use transform="matrix(0.05,0,0,0.05,52.900000000000006,0)" xlink:href="#aQ"/><use transform="matrix(0.05,0,0,0.05,62.900000000000006,0)" xlink:href="#ba"/><use transform="matrix(0.05,0,0,0.05,68.85000000000001,0)" xlink:href="#aE"/><use transform="matrix(0.05,0,0,0.05,78.85000000000001,0)" xlink:href="#aF"/><use transform="matrix(0.05,0,0,0.05,88.85000000000001,0)" xlink:href="#aG"/><use transform="matrix(0.05,0,0,0.05,103.80000000000001,0)" xlink:href="#aH"/><use transform="matrix(0.05,0,0,0.05,113.80000000000001,0)" xlink:href="#bb"/></g><g id="m"><use transform="matrix(0.05,0,0,0.05,0,0)" xlink:href="#aM"/><use transform="matrix(0.05,0,0,0.05,3.95,0)" xlink:href="#aN"/><use transform="matrix(0.05,0,0,0.05,13.949999999999998,0)" xlink:href="#bb"/></g><path fill="#333" d="M33-261c38 41 65 92 65 168S71 34 33 75H2C39 34 66-17 66-93S39-220 2-261h31" id="bc"/><g id="n"><use transform="matrix(0.05,0,0,0.05,0,0)" xlink:href="#aN"/><use transform="matrix(0.05,0,0,0.05,10,0)" xlink:href="#aO"/><use transform="matrix(0.05,0,0,0.05,20,0)" xlink:href="#aL"/><use transform="matrix(0.05,0,0,0.05,25.950000000000003,0)" xlink:href="#aK"/><use transform="matrix(0.05,0,0,0.05,30.950000000000003,0)" xlink:href="#bc"/></g><g id="o"><use transform="matrix(0.05,0,0,0.05,0,0)" xlink:href="#aM"/><use transform="matrix(0.05,0,0,0.05,3.95,0)" xlink:href="#aE"/><use transform="matrix(0.05,0,0,0.05,13.949999999999998,0)" xlink:href="#aM"/><use transform="matrix(0.05,0,0,0.05,17.9,0)" xlink:href="#aK"/><use transform="matrix(0.05,0,0,0.05,22.9,0)" xlink:href="#aQ"/><use transform="matrix(0.05,0,0,0.05,32.9,0)" xlink:href="#aN"/><use transform="matrix(0.05,0,0,0.05,42.9,0)" xlink:href="#aL"/><use transform="matrix(0.05,0,0,0.05,48.85,0)" xlink:href="#aO"/><use transform="matrix(0.05,0,0,0.05,58.85,0)" xlink:href="#aR"/><use transform="matrix(0.05,0,0,0.05,62.800000000000004,0)" xlink:href="#aH"/><use transform="matrix(0.05,0,0,0.05,72.80000000000001,0)" xlink:href="#aS"/><use transform="matrix(0.05,0,0,0.05,81.80000000000001,0)" xlink:href="#aK"/><use transform="matrix(0.05,0,0,0.05,86.80000000000001,0)" xlink:href="#aJ"/><use transform="matrix(0.05,0,0,0.05,95.80000000000001,0)" xlink:href="#ba"/><use transform="matrix(0.05,0,0,0.05,101.75000000000001,0)" xlink:href="#bc"/></g><g id="p"><use transform="matrix(0.05,0,0,0.05,0,0)" xlink:href="#aS"/><use transform="matrix(0.05,0,0,0.05,9,0)" xlink:href="#aL"/><use transform="matrix(0.05,0,0,0.05,14.949999999999998,0)" xlink:href="#aH"/><use transform="matrix(0.05,0,0,0.05,24.95,0)" xlink:href="#aF"/><use transform="matrix(0.05,0,0,0.05,34.95,0)" xlink:href="#aK"/><use transform="matrix(0.05,0,0,0.05,39.95,0)" xlink:href="#aH"/><use transform="matrix(0.05,0,0,0.05,49.95,0)" xlink:href="#aQ"/><use transform="matrix(0.05,0,0,0.05,59.95,0)" xlink:href="#aN"/><use transform="matrix(0.05,0,0,0.05,69.95,0)" xlink:href="#aL"/><use transform="matrix(0.05,0,0,0.05,75.9,0)" xlink:href="#aO"/><use transform="matrix(0.05,0,0,0.05,85.9,0)" xlink:href="#aR"/><use transform="matrix(0.05,0,0,0.05,89.85000000000001,0)" xlink:href="#aH"/><use transform="matrix(0.05,0,0,0.05,99.85000000000001,0)" xlink:href="#aS"/><use transform="matrix(0.05,0,0,0.05,108.85000000000001,0)" xlink:href="#aK"/><use transform="matrix(0.05,0,0,0.05,113.85000000000001,0)" xlink:href="#ba"/><use transform="matrix(0.05,0,0,0.05,119.80000000000001,0)" xlink:href="#aE"/><use transform="matrix(0.05,0,0,0.05,129.8,0)" xlink:href="#aF"/><use transform="matrix(0.05,0,0,0.05,139.8,0)" xlink:href="#aG"/><use transform="matrix(0.05,0,0,0.05,154.75,0)" xlink:href="#aH"/><use transform="matrix(0.05,0,0,0.05,164.75,0)" xlink:href="#bc"/></g><path fill="#333" d="M177-190C167-65 218 103 67 71c-23-6-38-20-44-43l32-5c15 47 100 32 89-28v-30C133-14 115 1 83 1 29 1 15-40 15-95c0-56 16-97 71-98 29-1 48 16 59 35 1-10 0-23 2-32h30zM94-22c36 0 50-32 50-73 0-42-14-75-50-75-39 0-46 34-46 75s6 73 46 73" id="bd"/><g id="q"><use transform="matrix(0.05,0,0,0.05,0,0)" xlink:href="#bd"/><use transform="matrix(0.05,0,0,0.05,10,0)" xlink:href="#aH"/><use transform="matrix(0.05,0,0,0.05,20,0)" xlink:href="#aK"/><use transform="matrix(0.05,0,0,0.05,25,0)" xlink:href="#aQ"/><use transform="matrix(0.05,0,0,0.05,35,0)" xlink:href="#aP"/><use transform="matrix(0.05,0,0,0.05,44,0)" xlink:href="#aG"/><use transform="matrix(0.05,0,0,0.05,58.95,0)" xlink:href="#aQ"/><use transform="matrix(0.05,0,0,0.05,68.95,0)" xlink:href="#aM"/><use transform="matrix(0.05,0,0,0.05,72.9,0)" xlink:href="#aN"/><use transform="matrix(0.05,0,0,0.05,82.9,0)" xlink:href="#ba"/><use transform="matrix(0.05,0,0,0.05,88.85000000000001,0)" xlink:href="#bc"/><use transform="matrix(0.05,0,0,0.05,94.80000000000001,0)" xlink:href="#aI"/><use transform="matrix(0.05,0,0,0.05,99.80000000000001,0)" xlink:href="#aJ"/><use transform="matrix(0.05,0,0,0.05,108.80000000000001,0)" xlink:href="#aK"/><use transform="matrix(0.05,0,0,0.05,113.80000000000001,0)" xlink:href="#aL"/></g><g id="r"><use transform="matrix(0.05,0,0,0.05,0,0)" xlink:href="#bd"/><use transform="matrix(0.05,0,0,0.05,10,0)" xlink:href="#aH"/><use transform="matrix(0.05,0,0,0.05,20,0)" xlink:href="#aK"/><use transform="matrix(0.05,0,0,0.05,25,0)" xlink:href="#aQ"/><use transform="matrix(0.05,0,0,0.05,35,0)" xlink:href="#aP"/><use transform="matrix(0.05,0,0,0.05,44,0)" xlink:href="#aG"/><use transform="matrix(0.05,0,0,0.05,58.95,0)" xlink:href="#aQ"/><use transform="matrix(0.05,0,0,0.05,68.95,0)" xlink:href="#aN"/><use transform="matrix(0.05,0,0,0.05,78.95,0)" xlink:href="#aO"/><use transform="matrix(0.05,0,0,0.05,88.95,0)" xlink:href="#aL"/><use transform="matrix(0.05,0,0,0.05,94.9,0)" xlink:href="#aK"/><use transform="matrix(0.05,0,0,0.05,99.9,0)" xlink:href="#ba"/><use transform="matrix(0.05,0,0,0.05,105.85000000000001,0)" xlink:href="#bc"/><use transform="matrix(0.05,0,0,0.05,111.80000000000001,0)" xlink:href="#aI"/><use transform="matrix(0.05,0,0,0.05,116.80000000000001,0)" xlink:href="#aJ"/><use transform="matrix(0.05,0,0,0.05,125.80000000000001,0)" xlink:href="#aK"/><use transform="matrix(0.05,0,0,0.05,130.8,0)" xlink:href="#aL"/></g><g id="s"><use transform="matrix(0.05,0,0,0.05,0,0)" xlink:href="#bd"/><use transform="matrix(0.05,0,0,0.05,10,0)" xlink:href="#aH"/><use transform="matrix(0.05,0,0,0.05,20,0)" xlink:href="#aK"/><use transform="matrix(0.05,0,0,0.05,25,0)" xlink:href="#aQ"/><use transform="matrix(0.05,0,0,0.05,35,0)" xlink:href="#aJ"/><use transform="matrix(0.05,0,0,0.05,44,0)" xlink:href="#aK"/><use transform="matrix(0.05,0,0,0.05,49,0)" xlink:href="#aF"/><use transform="matrix(0.05,0,0,0.05,59,0)" xlink:href="#aK"/><use transform="matrix(0.05,0,0,0.05,64,0)" xlink:href="#aX"/><use transform="matrix(0.05,0,0,0.05,74,0)" xlink:href="#aJ"/><use transform="matrix(0.05,0,0,0.05,83,0)" xlink:href="#ba"/><use transform="matrix(0.05,0,0,0.05,88.95,0)" xlink:href="#bc"/><use transform="matrix(0.05,0,0,0.05,94.9,0)" xlink:href="#aI"/><use transform="matrix(0.05,0,0,0.05,99.9,0)" xlink:href="#aY"/><use transform="matrix(0.05,0,0,0.05,109.9,0)" xlink:href="#aO"/><use transform="matrix(0.05,0,0,0.05,119.9,0)" xlink:href="#aO"/><use transform="matrix(0.05,0,0,0.05,129.9,0)" xlink:href="#aZ"/></g><g id="t"><use transform="matrix(0.05,0,0,0.05,0,0)" xlink:href="#bd"/><use transform="matrix(0.05,0,0,0.05,10,0)" xlink:href="#aH"/><use transform="matrix(0.05,0,0,0.05,20,0)" xlink:href="#aK"/><use transform="matrix(0.05,0,0,0.05,25,0)" xlink:href="#aQ"/><use transform="matrix(0.05,0,0,0.05,35,0)" xlink:href="#aN"/><use transform="matrix(0.05,0,0,0.05,45,0)" xlink:href="#aL"/><use transform="matrix(0.05,0,0,0.05,50.95,0)" xlink:href="#aO"/><use transform="matrix(0.05,0,0,0.05,60.95,0)" xlink:href="#aR"/><use transform="matrix(0.05,0,0,0.05,64.9,0)" xlink:href="#aH"/><use transform="matrix(0.05,0,0,0.05,74.9,0)" xlink:href="#aS"/><use transform="matrix(0.05,0,0,0.05,83.9,0)" xlink:href="#aK"/><use transform="matrix(0.05,0,0,0.05,88.9,0)" xlink:href="#aJ"/><use transform="matrix(0.05,0,0,0.05,97.9,0)" xlink:href="#ba"/><use transform="matrix(0.05,0,0,0.05,103.85000000000001,0)" xlink:href="#bc"/><use transform="matrix(0.05,0,0,0.05,109.80000000000001,0)" xlink:href="#aI"/><use transform="matrix(0.05,0,0,0.05,114.80000000000001,0)" xlink:href="#aT"/><use transform="matrix(0.05,0,0,0.05,124.80000000000001,0)" xlink:href="#aM"/><use transform="matrix(0.05,0,0,0.05,128.75,0)" xlink:href="#aS"/><use transform="matrix(0.05,0,0,0.05,137.75,0)" xlink:href="#aK"/></g><path fill="#333" d="M206 0h-36l-40-164L89 0H53L-1-190h32L70-26l43-164h34l41 164 42-164h31" id="be"/><path fill="#333" d="M101-234c-31-9-42 10-38 44h38v23H63V0H32v-167H5v-23h27c-7-52 17-82 69-68v24" id="bf"/><g id="u"><use transform="matrix(0.05,0,0,0.05,0,0)" xlink:href="#aT"/><use transform="matrix(0.05,0,0,0.05,10,0)" xlink:href="#aO"/><use transform="matrix(0.05,0,0,0.05,20,0)" xlink:href="#be"/><use transform="matrix(0.05,0,0,0.05,32.95,0)" xlink:href="#aE"/><use transform="matrix(0.05,0,0,0.05,42.95,0)" xlink:href="#aZ"/><use transform="matrix(0.05,0,0,0.05,46.900000000000006,0)" xlink:href="#aO"/><use transform="matrix(0.05,0,0,0.05,56.900000000000006,0)" xlink:href="#aF"/><use transform="matrix(0.05,0,0,0.05,66.9,0)" xlink:href="#aT"/><use transform="matrix(0.05,0,0,0.05,76.9,0)" xlink:href="#aQ"/><use transform="matrix(0.05,0,0,0.05,86.9,0)" xlink:href="#aN"/><use transform="matrix(0.05,0,0,0.05,96.9,0)" xlink:href="#aL"/><use transform="matrix(0.05,0,0,0.05,102.85000000000001,0)" xlink:href="#aO"/><use transform="matrix(0.05,0,0,0.05,112.85000000000001,0)" xlink:href="#aR"/><use transform="matrix(0.05,0,0,0.05,116.80000000000001,0)" xlink:href="#aH"/><use transform="matrix(0.05,0,0,0.05,126.80000000000001,0)" xlink:href="#aS"/><use transform="matrix(0.05,0,0,0.05,135.8,0)" xlink:href="#aK"/><use transform="matrix(0.05,0,0,0.05,140.8,0)" xlink:href="#aQ"/><use transform="matrix(0.05,0,0,0.05,150.8,0)" xlink:href="#bf"/><use transform="matrix(0.05,0,0,0.05,155.8,0)" xlink:href="#aL"/><use transform="matrix(0.05,0,0,0.05,161.75,0)" xlink:href="#aO"/><use transform="matrix(0.05,0,0,0.05,171.75,0)" xlink:href="#aG"/><use transform="matrix(0.05,0,0,0.05,186.7,0)" xlink:href="#aQ"/><use transform="matrix(0.05,0,0,0.05,196.7,0)" xlink:href="#aP"/><use transform="matrix(0.05,0,0,0.05,205.69999999999996,0)" xlink:href="#aG"/><use transform="matrix(0.05,0,0,0.05,220.64999999999998,0)" xlink:href="#ba"/><use transform="matrix(0.05,0,0,0.05,226.59999999999997,0)" xlink:href="#aE"/><use transform="matrix(0.05,0,0,0.05,236.59999999999997,0)" xlink:href="#aF"/><use transform="matrix(0.05,0,0,0.05,246.59999999999997,0)" xlink:href="#aG"/><use transform="matrix(0.05,0,0,0.05,261.54999999999995,0)" xlink:href="#aH"/><use transform="matrix(0.05,0,0,0.05,271.54999999999995,0)" xlink:href="#bb"/></g><path fill="#333" d="M106-169C34-169 62-67 57 0H25v-261h32l-1 103c12-21 28-36 61-36 89 0 53 116 60 194h-32v-121c2-32-8-49-39-48" id="bg"/><g id="v"><use transform="matrix(0.05,0,0,0.05,0,0)" xlink:href="#bf"/><use transform="matrix(0.05,0,0,0.05,5,0)" xlink:href="#aM"/><use transform="matrix(0.05,0,0,0.05,8.95,0)" xlink:href="#aZ"/><use transform="matrix(0.05,0,0,0.05,12.899999999999999,0)" xlink:href="#aH"/><use transform="matrix(0.05,0,0,0.05,22.9,0)" xlink:href="#aN"/><use transform="matrix(0.05,0,0,0.05,32.9,0)" xlink:href="#aF"/><use transform="matrix(0.05,0,0,0.05,42.9,0)" xlink:href="#aK"/><use transform="matrix(0.05,0,0,0.05,47.9,0)" xlink:href="#bg"/><use transform="matrix(0.05,0,0,0.05,57.900000000000006,0)" xlink:href="#bc"/></g><g id="w"><use transform="matrix(0.05,0,0,0.05,0,0)" xlink:href="#aX"/><use transform="matrix(0.05,0,0,0.05,10,0)" xlink:href="#aN"/><use transform="matrix(0.05,0,0,0.05,20,0)" xlink:href="#aZ"/><use transform="matrix(0.05,0,0,0.05,23.95,0)" xlink:href="#aO"/><use transform="matrix(0.05,0,0,0.05,33.95,0)" xlink:href="#aF"/><use transform="matrix(0.05,0,0,0.05,43.95,0)" xlink:href="#aT"/><use transform="matrix(0.05,0,0,0.05,53.95,0)" xlink:href="#aQ"/><use transform="matrix(0.05,0,0,0.05,63.95,0)" xlink:href="#aN"/><use transform="matrix(0.05,0,0,0.05,73.95,0)" xlink:href="#aL"/><use transform="matrix(0.05,0,0,0.05,79.9,0)" xlink:href="#aO"/><use transform="matrix(0.05,0,0,0.05,89.9,0)" xlink:href="#aR"/><use transform="matrix(0.05,0,0,0.05,93.85000000000001,0)" xlink:href="#aH"/><use transform="matrix(0.05,0,0,0.05,103.85000000000001,0)" xlink:href="#aS"/><use transform="matrix(0.05,0,0,0.05,112.85000000000001,0)" xlink:href="#aK"/><use transform="matrix(0.05,0,0,0.05,117.85000000000001,0)" xlink:href="#aQ"/><use transform="matrix(0.05,0,0,0.05,127.85000000000001,0)" xlink:href="#aK"/><use transform="matrix(0.05,0,0,0.05,132.85000000000002,0)" xlink:href="#aO"/><use transform="matrix(0.05,0,0,0.05,142.85000000000002,0)" xlink:href="#aQ"/><use transform="matrix(0.05,0,0,0.05,152.85000000000002,0)" xlink:href="#aP"/><use transform="matrix(0.05,0,0,0.05,161.85000000000002,0)" xlink:href="#aG"/><use transform="matrix(0.05,0,0,0.05,176.8,0)" xlink:href="#ba"/><use transform="matrix(0.05,0,0,0.05,182.75,0)" xlink:href="#bf"/><use transform="matrix(0.05,0,0,0.05,187.75,0)" xlink:href="#aM"/><use transform="matrix(0.05,0,0,0.05,191.7,0)" xlink:href="#aZ"/><use transform="matrix(0.05,0,0,0.05,195.64999999999998,0)" xlink:href="#aH"/><use transform="matrix(0.05,0,0,0.05,205.64999999999998,0)" xlink:href="#aN"/><use transform="matrix(0.05,0,0,0.05,215.64999999999998,0)" xlink:href="#aF"/><use transform="matrix(0.05,0,0,0.05,225.64999999999998,0)" xlink:href="#aK"/><use transform="matrix(0.05,0,0,0.05,230.64999999999998,0)" xlink:href="#bg"/><use transform="matrix(0.05,0,0,0.05,240.64999999999998,0)" xlink:href="#bc"/></g><g id="x"><use transform="matrix(0.05,0,0,0.05,0,0)" xlink:href="#aS"/><use transform="matrix(0.05,0,0,0.05,9,0)" xlink:href="#aZ"/><use transform="matrix(0.05,0,0,0.05,12.949999999999998,0)" xlink:href="#aO"/><use transform="matrix(0.05,0,0,0.05,22.95,0)" xlink:href="#aE"/><use transform="matrix(0.05,0,0,0.05,32.95,0)" xlink:href="#aH"/><use transform="matrix(0.05,0,0,0.05,42.95,0)" xlink:href="#aQ"/><use transform="matrix(0.05,0,0,0.05,52.95,0)" xlink:href="#aN"/><use transform="matrix(0.05,0,0,0.05,62.95,0)" xlink:href="#aL"/><use transform="matrix(0.05,0,0,0.05,68.9,0)" xlink:href="#aO"/><use transform="matrix(0.05,0,0,0.05,78.9,0)" xlink:href="#aR"/><use transform="matrix(0.05,0,0,0.05,82.85000000000001,0)" xlink:href="#aH"/><use transform="matrix(0.05,0,0,0.05,92.85000000000001,0)" xlink:href="#aS"/><use transform="matrix(0.05,0,0,0.05,101.85000000000001,0)" xlink:href="#aK"/><use transform="matrix(0.05,0,0,0.05,106.85000000000001,0)" xlink:href="#ba"/><use transform="matrix(0.05,0,0,0.05,112.80000000000001,0)" xlink:href="#aN"/><use transform="matrix(0.05,0,0,0.05,122.80000000000001,0)" xlink:href="#aL"/><use transform="matrix(0.05,0,0,0.05,128.75,0)" xlink:href="#aO"/><use transform="matrix(0.05,0,0,0.05,138.75,0)" xlink:href="#aR"/><use transform="matrix(0.05,0,0,0.05,142.7,0)" xlink:href="#aH"/><use transform="matrix(0.05,0,0,0.05,152.7,0)" xlink:href="#aS"/><use transform="matrix(0.05,0,0,0.05,161.7,0)" xlink:href="#aK"/><use transform="matrix(0.05,0,0,0.05,166.7,0)" xlink:href="#aQ"/><use transform="matrix(0.05,0,0,0.05,176.7,0)" xlink:href="#aE"/><use transform="matrix(0.05,0,0,0.05,186.7,0)" xlink:href="#aF"/><use transform="matrix(0.05,0,0,0.05,196.7,0)" xlink:href="#aG"/><use transform="matrix(0.05,0,0,0.05,211.64999999999998,0)" xlink:href="#aH"/><use transform="matrix(0.05,0,0,0.05,221.64999999999998,0)" xlink:href="#bb"/></g><g id="y"><use transform="matrix(0.05,0,0,0.05,0,0)" xlink:href="#aP"/><use transform="matrix(0.05,0,0,0.05,9,0)" xlink:href="#aG"/><use transform="matrix(0.05,0,0,0.05,23.950000000000003,0)" xlink:href="#aQ"/><use transform="matrix(0.05,0,0,0.05,33.95,0)" xlink:href="#aZ"/><use transform="matrix(0.05,0,0,0.05,37.900000000000006,0)" xlink:href="#aM"/><use transform="matrix(0.05,0,0,0.05,41.85000000000001,0)" xlink:href="#aJ"/><use transform="matrix(0.05,0,0,0.05,50.85000000000001,0)" xlink:href="#aK"/><use transform="matrix(0.05,0,0,0.05,55.85,0)" xlink:href="#bc"/></g><g id="z"><use transform="matrix(0.05,0,0,0.05,0,0)" xlink:href="#aQ"/><use transform="matrix(0.05,0,0,0.05,10,0)" xlink:href="#aQ"/><use transform="matrix(0.05,0,0,0.05,20,0)" xlink:href="#aJ"/><use transform="matrix(0.05,0,0,0.05,29,0)" xlink:href="#aK"/><use transform="matrix(0.05,0,0,0.05,34,0)" xlink:href="#aL"/><use transform="matrix(0.05,0,0,0.05,39.95,0)" xlink:href="#aQ"/><use transform="matrix(0.05,0,0,0.05,49.95,0)" xlink:href="#aQ"/><use transform="matrix(0.05,0,0,0.05,59.95,0)" xlink:href="#ba"/><use transform="matrix(0.05,0,0,0.05,65.9,0)" xlink:href="#bc"/><use transform="matrix(0.05,0,0,0.05,71.85000000000001,0)" xlink:href="#aI"/><use transform="matrix(0.05,0,0,0.05,76.85000000000001,0)" xlink:href="#aJ"/><use transform="matrix(0.05,0,0,0.05,85.85000000000001,0)" xlink:href="#aK"/><use transform="matrix(0.05,0,0,0.05,90.85000000000001,0)" xlink:href="#aL"/></g><path fill="#333" d="M135-194c53 0 70 44 70 98 0 56-19 98-73 100-31 1-45-17-59-34 3 33 2 69 2 105H25l-1-265h48c2 10 0 23 3 31 11-24 29-35 60-35zM114-30c33 0 39-31 40-66 0-38-9-64-40-64-56 0-55 130 0 130" id="bh"/><path fill="#333" d="M110-194c64 0 96 36 96 99 0 64-35 99-97 99-61 0-95-36-95-99 0-62 34-99 96-99zm-1 164c35 0 45-28 45-65 0-40-10-65-43-65-34 0-45 26-45 65 0 36 10 65 43 65" id="bi"/><path fill="#333" d="M25-224v-37h50v37H25zM75 22c2 45-34 59-81 51V38c22 5 31-5 31-27v-201h50V22" id="bj"/><g id="A"><use transform="matrix(0.05,0,0,0.05,0,0)" xlink:href="#bh"/><use transform="matrix(0.05,0,0,0.05,10.950000000000001,0)" xlink:href="#as"/><use transform="matrix(0.05,0,0,0.05,17.950000000000003,0)" xlink:href="#bi"/><use transform="matrix(0.05,0,0,0.05,28.900000000000006,0)" xlink:href="#bj"/><use transform="matrix(0.05,0,0,0.05,33.900000000000006,0)" xlink:href="#aC"/><use transform="matrix(0.05,0,0,0.05,43.900000000000006,0)" xlink:href="#az"/><use transform="matrix(0.05,0,0,0.05,53.900000000000006,0)" xlink:href="#at"/></g><g id="B"><use transform="matrix(0.05,0,0,0.05,0,0)" xlink:href="#aT"/><use transform="matrix(0.05,0,0,0.05,10,0)" xlink:href="#aH"/><use transform="matrix(0.05,0,0,0.05,20,0)" xlink:href="#aP"/><use transform="matrix(0.05,0,0,0.05,29,0)" xlink:href="#aM"/><use transform="matrix(0.05,0,0,0.05,32.95,0)" xlink:href="#aS"/><use transform="matrix(0.05,0,0,0.05,41.95,0)" xlink:href="#aH"/><use transform="matrix(0.05,0,0,0.05,51.95,0)" xlink:href="#aJ"/><use transform="matrix(0.05,0,0,0.05,60.95,0)" xlink:href="#aI"/><use transform="matrix(0.05,0,0,0.05,65.95,0)" xlink:href="#aT"/><use transform="matrix(0.05,0,0,0.05,75.95,0)" xlink:href="#aM"/><use transform="matrix(0.05,0,0,0.05,79.9,0)" xlink:href="#aS"/><use transform="matrix(0.05,0,0,0.05,88.9,0)" xlink:href="#aK"/></g><g id="C"><use transform="matrix(0.05,0,0,0.05,0,0)" xlink:href="#aE"/><use transform="matrix(0.05,0,0,0.05,10,0)" xlink:href="#aF"/><use transform="matrix(0.05,0,0,0.05,20,0)" xlink:href="#aG"/><use transform="matrix(0.05,0,0,0.05,34.95,0)" xlink:href="#aH"/><use transform="matrix(0.05,0,0,0.05,44.95,0)" xlink:href="#aI"/><use transform="matrix(0.05,0,0,0.05,49.95,0)" xlink:href="#aJ"/><use transform="matrix(0.05,0,0,0.05,58.95,0)" xlink:href="#aK"/><use transform="matrix(0.05,0,0,0.05,63.95,0)" xlink:href="#aL"/></g><g id="D"><use transform="matrix(0.05,0,0,0.05,0,0)" xlink:href="#aQ"/><use transform="matrix(0.05,0,0,0.05,10,0)" xlink:href="#aQ"/><use transform="matrix(0.05,0,0,0.05,20,0)" xlink:href="#aM"/><use transform="matrix(0.05,0,0,0.05,23.95,0)" xlink:href="#aE"/><use transform="matrix(0.05,0,0,0.05,33.95,0)" xlink:href="#aM"/><use transform="matrix(0.05,0,0,0.05,37.900000000000006,0)" xlink:href="#aK"/><use transform="matrix(0.05,0,0,0.05,42.900000000000006,0)" xlink:href="#aQ"/><use transform="matrix(0.05,0,0,0.05,52.900000000000006,0)" xlink:href="#aQ"/><use transform="matrix(0.05,0,0,0.05,62.900000000000006,0)" xlink:href="#ba"/><use transform="matrix(0.05,0,0,0.05,68.85000000000001,0)" xlink:href="#aM"/><use transform="matrix(0.05,0,0,0.05,72.80000000000001,0)" xlink:href="#aN"/><use transform="matrix(0.05,0,0,0.05,82.80000000000001,0)" xlink:href="#bb"/></g><g id="E"><use transform="matrix(0.05,0,0,0.05,0,0)" xlink:href="#aP"/><use transform="matrix(0.05,0,0,0.05,9,0)" xlink:href="#aG"/><use transform="matrix(0.05,0,0,0.05,23.950000000000003,0)" xlink:href="#aQ"/><use transform="matrix(0.05,0,0,0.05,33.95,0)" xlink:href="#aM"/><use transform="matrix(0.05,0,0,0.05,37.900000000000006,0)" xlink:href="#aN"/><use transform="matrix(0.05,0,0,0.05,47.900000000000006,0)" xlink:href="#bb"/></g><g id="F"><use transform="matrix(0.05,0,0,0.05,0,0)" xlink:href="#aN"/><use transform="matrix(0.05,0,0,0.05,10,0)" xlink:href="#aO"/><use transform="matrix(0.05,0,0,0.05,20,0)" xlink:href="#aL"/><use transform="matrix(0.05,0,0,0.05,25.950000000000003,0)" xlink:href="#aK"/><use transform="matrix(0.05,0,0,0.05,30.950000000000003,0)" xlink:href="#bb"/></g><g id="G"><use transform="matrix(0.05,0,0,0.05,0,0)" xlink:href="#aE"/><use transform="matrix(0.05,0,0,0.05,10,0)" xlink:href="#aF"/><use transform="matrix(0.05,0,0,0.05,20,0)" xlink:href="#aG"/><use transform="matrix(0.05,0,0,0.05,34.95,0)" xlink:href="#aH"/><use transform="matrix(0.05,0,0,0.05,44.95,0)" xlink:href="#bb"/></g><path fill="#333" d="M190 0L58-211 59 0H30v-248h39L202-35l-2-213h31V0h-41" id="bk"/><g id="H"><use transform="matrix(0.05,0,0,0.05,0,0)" xlink:href="#aN"/><use transform="matrix(0.05,0,0,0.05,10,0)" xlink:href="#aL"/><use transform="matrix(0.05,0,0,0.05,15.949999999999998,0)" xlink:href="#aO"/><use transform="matrix(0.05,0,0,0.05,25.950000000000003,0)" xlink:href="#aR"/><use transform="matrix(0.05,0,0,0.05,29.899999999999995,0)" xlink:href="#aH"/><use transform="matrix(0.05,0,0,0.05,39.9,0)" xlink:href="#aS"/><use transform="matrix(0.05,0,0,0.05,48.9,0)" xlink:href="#aK"/><use transform="matrix(0.05,0,0,0.05,53.900000000000006,0)" xlink:href="#aQ"/><use transform="matrix(0.05,0,0,0.05,63.900000000000006,0)" xlink:href="#aM"/><use transform="matrix(0.05,0,0,0.05,67.85,0)" xlink:href="#aT"/><use transform="matrix(0.05,0,0,0.05,77.85,0)" xlink:href="#aU"/><use transform="matrix(0.05,0,0,0.05,88.35,0)" xlink:href="#bk"/><use transform="matrix(0.05,0,0,0.05,101.3,0)" xlink:href="#aO"/><use transform="matrix(0.05,0,0,0.05,111.30000000000001,0)" xlink:href="#aE"/><use transform="matrix(0.05,0,0,0.05,121.30000000000001,0)" xlink:href="#aH"/><use transform="matrix(0.05,0,0,0.05,131.3,0)" xlink:href="#bc"/></g><g id="I"><use transform="matrix(0.05,0,0,0.05,0,0)" xlink:href="#aS"/><use transform="matrix(0.05,0,0,0.05,9,0)" xlink:href="#aL"/><use transform="matrix(0.05,0,0,0.05,14.949999999999998,0)" xlink:href="#aH"/><use transform="matrix(0.05,0,0,0.05,24.95,0)" xlink:href="#aF"/><use transform="matrix(0.05,0,0,0.05,34.95,0)" xlink:href="#aK"/><use transform="matrix(0.05,0,0,0.05,39.95,0)" xlink:href="#aH"/><use transform="matrix(0.05,0,0,0.05,49.95,0)" xlink:href="#aQ"/><use transform="matrix(0.05,0,0,0.05,59.95,0)" xlink:href="#aN"/><use transform="matrix(0.05,0,0,0.05,69.95,0)" xlink:href="#aL"/><use transform="matrix(0.05,0,0,0.05,75.9,0)" xlink:href="#aO"/><use transform="matrix(0.05,0,0,0.05,85.9,0)" xlink:href="#aR"/><use transform="matrix(0.05,0,0,0.05,89.85000000000001,0)" xlink:href="#aH"/><use transform="matrix(0.05,0,0,0.05,99.85000000000001,0)" xlink:href="#aS"/><use transform="matrix(0.05,0,0,0.05,108.85000000000001,0)" xlink:href="#aK"/><use transform="matrix(0.05,0,0,0.05,113.85000000000001,0)" xlink:href="#ba"/><use transform="matrix(0.05,0,0,0.05,119.80000000000001,0)" xlink:href="#bc"/></g><g id="J"><use transform="matrix(0.05,0,0,0.05,0,0)" xlink:href="#aM"/><use transform="matrix(0.05,0,0,0.05,3.95,0)" xlink:href="#aE"/><use transform="matrix(0.05,0,0,0.05,13.949999999999998,0)" xlink:href="#aM"/><use transform="matrix(0.05,0,0,0.05,17.9,0)" xlink:href="#aK"/><use transform="matrix(0.05,0,0,0.05,22.9,0)" xlink:href="#aQ"/><use transform="matrix(0.05,0,0,0.05,32.9,0)" xlink:href="#aT"/><use transform="matrix(0.05,0,0,0.05,42.9,0)" xlink:href="#aH"/><use transform="matrix(0.05,0,0,0.05,52.900000000000006,0)" xlink:href="#aP"/><use transform="matrix(0.05,0,0,0.05,61.900000000000006,0)" xlink:href="#aM"/><use transform="matrix(0.05,0,0,0.05,65.85,0)" xlink:href="#aS"/><use transform="matrix(0.05,0,0,0.05,74.85,0)" xlink:href="#aH"/><use transform="matrix(0.05,0,0,0.05,84.85,0)" xlink:href="#aJ"/><use transform="matrix(0.05,0,0,0.05,93.85,0)" xlink:href="#ba"/><use transform="matrix(0.05,0,0,0.05,99.8,0)" xlink:href="#bc"/></g><g id="K"><use transform="matrix(0.05,0,0,0.05,0,0)" xlink:href="#aS"/><use transform="matrix(0.05,0,0,0.05,9,0)" xlink:href="#aL"/><use transform="matrix(0.05,0,0,0.05,14.949999999999998,0)" xlink:href="#aH"/><use transform="matrix(0.05,0,0,0.05,24.95,0)" xlink:href="#aF"/><use transform="matrix(0.05,0,0,0.05,34.95,0)" xlink:href="#aK"/><use transform="matrix(0.05,0,0,0.05,39.95,0)" xlink:href="#aH"/><use transform="matrix(0.05,0,0,0.05,49.95,0)" xlink:href="#aQ"/><use transform="matrix(0.05,0,0,0.05,59.95,0)" xlink:href="#aT"/><use transform="matrix(0.05,0,0,0.05,69.95,0)" xlink:href="#aH"/><use transform="matrix(0.05,0,0,0.05,79.95,0)" xlink:href="#aP"/><use transform="matrix(0.05,0,0,0.05,88.95,0)" xlink:href="#aM"/><use transform="matrix(0.05,0,0,0.05,92.9,0)" xlink:href="#aS"/><use transform="matrix(0.05,0,0,0.05,101.9,0)" xlink:href="#aH"/><use transform="matrix(0.05,0,0,0.05,111.9,0)" xlink:href="#ba"/><use transform="matrix(0.05,0,0,0.05,117.85000000000001,0)" xlink:href="#aE"/><use transform="matrix(0.05,0,0,0.05,127.85000000000001,0)" xlink:href="#aF"/><use transform="matrix(0.05,0,0,0.05,137.85000000000002,0)" xlink:href="#aG"/><use transform="matrix(0.05,0,0,0.05,152.8,0)" xlink:href="#aH"/><use transform="matrix(0.05,0,0,0.05,162.8,0)" xlink:href="#bb"/></g><path fill="#333" d="M179-190L93 31C79 59 56 82 12 73V49c39 6 53-20 64-50L1-190h34L92-34l54-156h33" id="bl"/><g id="L"><use transform="matrix(0.05,0,0,0.05,0,0)" xlink:href="#aE"/><use transform="matrix(0.05,0,0,0.05,10,0)" xlink:href="#aO"/><use transform="matrix(0.05,0,0,0.05,20,0)" xlink:href="#aT"/><use transform="matrix(0.05,0,0,0.05,30,0)" xlink:href="#aH"/><use transform="matrix(0.05,0,0,0.05,40,0)" xlink:href="#aQ"/><use transform="matrix(0.05,0,0,0.05,50,0)" xlink:href="#aK"/><use transform="matrix(0.05,0,0,0.05,55,0)" xlink:href="#bl"/><use transform="matrix(0.05,0,0,0.05,64,0)" xlink:href="#aN"/><use transform="matrix(0.05,0,0,0.05,74,0)" xlink:href="#aH"/><use transform="matrix(0.05,0,0,0.05,84,0)" xlink:href="#bc"/></g><path fill="#333" d="M143 0L79-87 56-68V0H24v-261h32v163l83-92h37l-77 82L181 0h-38" id="bm"/><path fill="#333" d="M27 0v-27h64v-190l-56 39v-29l58-41h29v221h61V0H27" id="bn"/><g id="M"><use transform="matrix(0.05,0,0,0.05,0,0)" xlink:href="#aZ"/><use transform="matrix(0.05,0,0,0.05,3.95,0)" xlink:href="#aM"/><use transform="matrix(0.05,0,0,0.05,7.9,0)" xlink:href="#aE"/><use transform="matrix(0.05,0,0,0.05,17.9,0)" xlink:href="#bm"/><use transform="matrix(0.05,0,0,0.05,26.899999999999995,0)" xlink:href="#aQ"/><use transform="matrix(0.05,0,0,0.05,36.9,0)" xlink:href="#aT"/><use transform="matrix(0.05,0,0,0.05,46.9,0)" xlink:href="#aH"/><use transform="matrix(0.05,0,0,0.05,56.900000000000006,0)" xlink:href="#aP"/><use transform="matrix(0.05,0,0,0.05,65.9,0)" xlink:href="#aM"/><use transform="matrix(0.05,0,0,0.05,69.85000000000001,0)" xlink:href="#aS"/><use transform="matrix(0.05,0,0,0.05,78.85000000000001,0)" xlink:href="#aH"/><use transform="matrix(0.05,0,0,0.05,88.85000000000001,0)" xlink:href="#aJ"/><use transform="matrix(0.05,0,0,0.05,97.85000000000001,0)" xlink:href="#ba"/><use transform="matrix(0.05,0,0,0.05,103.80000000000001,0)" xlink:href="#aE"/><use transform="matrix(0.05,0,0,0.05,113.80000000000001,0)" xlink:href="#aO"/><use transform="matrix(0.05,0,0,0.05,123.80000000000001,0)" xlink:href="#aT"/><use transform="matrix(0.05,0,0,0.05,133.8,0)" xlink:href="#aH"/><use transform="matrix(0.05,0,0,0.05,143.8,0)" xlink:href="#bn"/><use transform="matrix(0.05,0,0,0.05,153.8,0)" xlink:href="#bb"/></g><path fill="#333" d="M101-251c82-7 93 87 43 132L82-64C71-53 59-42 53-27h129V0H18c2-99 128-94 128-182 0-28-16-43-45-43s-46 15-49 41l-32-3c6-41 34-60 81-64" id="bo"/><g id="N"><use transform="matrix(0.05,0,0,0.05,0,0)" xlink:href="#aE"/><use transform="matrix(0.05,0,0,0.05,10,0)" xlink:href="#aO"/><use transform="matrix(0.05,0,0,0.05,20,0)" xlink:href="#aT"/><use transform="matrix(0.05,0,0,0.05,30,0)" xlink:href="#aH"/><use transform="matrix(0.05,0,0,0.05,40,0)" xlink:href="#bo"/><use transform="matrix(0.05,0,0,0.05,50,0)" xlink:href="#bb"/></g><g id="O"><use transform="matrix(0.05,0,0,0.05,0,0)" xlink:href="#aF"/><use transform="matrix(0.05,0,0,0.05,10,0)" xlink:href="#aT"/><use transform="matrix(0.05,0,0,0.05,20,0)" xlink:href="#aF"/><use transform="matrix(0.05,0,0,0.05,30,0)" xlink:href="#aN"/><use transform="matrix(0.05,0,0,0.05,40,0)" xlink:href="#aK"/><use transform="matrix(0.05,0,0,0.05,45,0)" xlink:href="#aH"/><use transform="matrix(0.05,0,0,0.05,55,0)" xlink:href="#aL"/><use transform="matrix(0.05,0,0,0.05,60.95,0)" xlink:href="#bn"/><use transform="matrix(0.05,0,0,0.05,70.95,0)" xlink:href="#bb"/></g><g id="P"><use transform="matrix(0.05,0,0,0.05,0,0)" xlink:href="#aF"/><use transform="matrix(0.05,0,0,0.05,10,0)" xlink:href="#aT"/><use transform="matrix(0.05,0,0,0.05,20,0)" xlink:href="#aF"/><use transform="matrix(0.05,0,0,0.05,30,0)" xlink:href="#aN"/><use transform="matrix(0.05,0,0,0.05,40,0)" xlink:href="#aK"/><use transform="matrix(0.05,0,0,0.05,45,0)" xlink:href="#aH"/><use transform="matrix(0.05,0,0,0.05,55,0)" xlink:href="#aL"/><use transform="matrix(0.05,0,0,0.05,60.95,0)" xlink:href="#bo"/><use transform="matrix(0.05,0,0,0.05,70.95,0)" xlink:href="#bc"/></g><g id="Q"><use transform="matrix(0.05,0,0,0.05,0,0)" xlink:href="#aF"/><use transform="matrix(0.05,0,0,0.05,10,0)" xlink:href="#aT"/><use transform="matrix(0.05,0,0,0.05,20,0)" xlink:href="#aT"/><use transform="matrix(0.05,0,0,0.05,30,0)" xlink:href="#aQ"/><use transform="matrix(0.05,0,0,0.05,40,0)" xlink:href="#aS"/><use transform="matrix(0.05,0,0,0.05,49,0)" xlink:href="#aO"/><use transform="matrix(0.05,0,0,0.05,59,0)" xlink:href="#aG"/><use transform="matrix(0.05,0,0,0.05,73.95,0)" xlink:href="#aN"/><use transform="matrix(0.05,0,0,0.05,83.95,0)" xlink:href="#aX"/><use transform="matrix(0.05,0,0,0.05,93.95,0)" xlink:href="#aK"/><use transform="matrix(0.05,0,0,0.05,98.95,0)" xlink:href="#aH"/><use transform="matrix(0.05,0,0,0.05,108.95,0)" xlink:href="#ba"/><use transform="matrix(0.05,0,0,0.05,114.9,0)" xlink:href="#bc"/></g><g id="R"><use transform="matrix(0.05,0,0,0.05,0,0)" xlink:href="#be"/><use transform="matrix(0.05,0,0,0.05,12.950000000000001,0)" xlink:href="#aL"/><use transform="matrix(0.05,0,0,0.05,18.900000000000002,0)" xlink:href="#aM"/><use transform="matrix(0.05,0,0,0.05,22.85,0)" xlink:href="#aK"/><use transform="matrix(0.05,0,0,0.05,27.85,0)" xlink:href="#aH"/><use transform="matrix(0.05,0,0,0.05,37.85,0)" xlink:href="#aQ"/><use transform="matrix(0.05,0,0,0.05,47.85,0)" xlink:href="#aS"/><use transform="matrix(0.05,0,0,0.05,56.85,0)" xlink:href="#aO"/><use transform="matrix(0.05,0,0,0.05,66.85,0)" xlink:href="#aE"/><use transform="matrix(0.05,0,0,0.05,76.85,0)" xlink:href="#bf"/><use transform="matrix(0.05,0,0,0.05,81.85,0)" xlink:href="#aM"/><use transform="matrix(0.05,0,0,0.05,85.8,0)" xlink:href="#bd"/><use transform="matrix(0.05,0,0,0.05,95.8,0)" xlink:href="#ba"/><use transform="matrix(0.05,0,0,0.05,101.75,0)" xlink:href="#aE"/><use transform="matrix(0.05,0,0,0.05,111.75,0)" xlink:href="#aF"/><use transform="matrix(0.05,0,0,0.05,121.75,0)" xlink:href="#aG"/><use transform="matrix(0.05,0,0,0.05,136.7,0)" xlink:href="#aH"/><use transform="matrix(0.05,0,0,0.05,146.7,0)" xlink:href="#bb"/></g><g id="S"><use transform="matrix(0.05,0,0,0.05,0,0)" xlink:href="#aS"/><use transform="matrix(0.05,0,0,0.05,9,0)" xlink:href="#aO"/><use transform="matrix(0.05,0,0,0.05,19,0)" xlink:href="#aE"/><use transform="matrix(0.05,0,0,0.05,29,0)" xlink:href="#bf"/><use transform="matrix(0.05,0,0,0.05,34,0)" xlink:href="#aM"/><use transform="matrix(0.05,0,0,0.05,37.95,0)" xlink:href="#bd"/><use transform="matrix(0.05,0,0,0.05,47.95,0)" xlink:href="#bb"/></g><path fill="#333" d="M155-56V0h-30v-56H8v-25l114-167h33v167h35v25h-35zm-30-156c-27 46-58 90-88 131h88v-131" id="bp"/><path fill="#333" d="M101-251c68 0 85 55 85 127S166 4 100 4C33 4 14-52 14-124c0-73 17-127 87-127zm-1 229c47 0 54-49 54-102s-4-102-53-102c-51 0-55 48-55 102 0 53 5 102 54 102" id="bq"/><g id="T"><use transform="matrix(0.05,0,0,0.05,0,0)" xlink:href="#aK"/><use transform="matrix(0.05,0,0,0.05,5,0)" xlink:href="#aM"/><use transform="matrix(0.05,0,0,0.05,8.95,0)" xlink:href="#aG"/><use transform="matrix(0.05,0,0,0.05,23.9,0)" xlink:href="#aH"/><use transform="matrix(0.05,0,0,0.05,33.9,0)" xlink:href="#aO"/><use transform="matrix(0.05,0,0,0.05,43.9,0)" xlink:href="#aX"/><use transform="matrix(0.05,0,0,0.05,53.900000000000006,0)" xlink:href="#aK"/><use transform="matrix(0.05,0,0,0.05,58.900000000000006,0)" xlink:href="#aU"/><use transform="matrix(0.05,0,0,0.05,69.4,0)" xlink:href="#bo"/><use transform="matrix(0.05,0,0,0.05,79.4,0)" xlink:href="#bp"/><use transform="matrix(0.05,0,0,0.05,89.4,0)" xlink:href="#bq"/><use transform="matrix(0.05,0,0,0.05,99.4,0)" xlink:href="#bc"/></g><g id="U"><use transform="matrix(0.05,0,0,0.05,0,0)" xlink:href="#aJ"/><use transform="matrix(0.05,0,0,0.05,9,0)" xlink:href="#aK"/><use transform="matrix(0.05,0,0,0.05,14,0)" xlink:href="#aF"/><use transform="matrix(0.05,0,0,0.05,24,0)" xlink:href="#aL"/><use transform="matrix(0.05,0,0,0.05,29.950000000000003,0)" xlink:href="#aK"/><use transform="matrix(0.05,0,0,0.05,34.95,0)" xlink:href="#aQ"/><use transform="matrix(0.05,0,0,0.05,44.95,0)" xlink:href="#aT"/><use transform="matrix(0.05,0,0,0.05,54.95,0)" xlink:href="#aH"/><use transform="matrix(0.05,0,0,0.05,64.95,0)" xlink:href="#aP"/><use transform="matrix(0.05,0,0,0.05,73.95,0)" xlink:href="#aM"/><use transform="matrix(0.05,0,0,0.05,77.9,0)" xlink:href="#aS"/><use transform="matrix(0.05,0,0,0.05,86.9,0)" xlink:href="#aH"/><use transform="matrix(0.05,0,0,0.05,96.9,0)" xlink:href="#ba"/><use transform="matrix(0.05,0,0,0.05,102.85000000000001,0)" xlink:href="#aE"/><use transform="matrix(0.05,0,0,0.05,112.85000000000001,0)" xlink:href="#aF"/><use transform="matrix(0.05,0,0,0.05,122.85000000000001,0)" xlink:href="#aG"/><use transform="matrix(0.05,0,0,0.05,137.8,0)" xlink:href="#aH"/><use transform="matrix(0.05,0,0,0.05,147.8,0)" xlink:href="#bc"/></g><g id="V"><use transform="matrix(0.05,0,0,0.05,0,0)" xlink:href="#aJ"/><use transform="matrix(0.05,0,0,0.05,9,0)" xlink:href="#aK"/><use transform="matrix(0.05,0,0,0.05,14,0)" xlink:href="#aO"/><use transform="matrix(0.05,0,0,0.05,24,0)" xlink:href="#aN"/><use transform="matrix(0.05,0,0,0.05,34,0)" xlink:href="#aQ"/><use transform="matrix(0.05,0,0,0.05,44,0)" xlink:href="#aT"/><use transform="matrix(0.05,0,0,0.05,54,0)" xlink:href="#aH"/><use transform="matrix(0.05,0,0,0.05,64,0)" xlink:href="#aP"/><use transform="matrix(0.05,0,0,0.05,73,0)" xlink:href="#aM"/><use transform="matrix(0.05,0,0,0.05,76.95,0)" xlink:href="#aS"/><use transform="matrix(0.05,0,0,0.05,85.95,0)" xlink:href="#aH"/><use transform="matrix(0.05,0,0,0.05,95.95,0)" xlink:href="#ba"/><use transform="matrix(0.05,0,0,0.05,101.9,0)" xlink:href="#aE"/><use transform="matrix(0.05,0,0,0.05,111.9,0)" xlink:href="#aF"/><use transform="matrix(0.05,0,0,0.05,121.9,0)" xlink:href="#aG"/><use transform="matrix(0.05,0,0,0.05,136.85,0)" xlink:href="#aH"/><use transform="matrix(0.05,0,0,0.05,146.85,0)" xlink:href="#bc"/></g><g id="W"><use transform="matrix(0.05,0,0,0.05,0,0)" xlink:href="#aO"/><use transform="matrix(0.05,0,0,0.05,10,0)" xlink:href="#aN"/><use transform="matrix(0.05,0,0,0.05,20,0)" xlink:href="#aH"/><use transform="matrix(0.05,0,0,0.05,30,0)" xlink:href="#aE"/><use transform="matrix(0.05,0,0,0.05,40,0)" xlink:href="#ba"/><use transform="matrix(0.05,0,0,0.05,45.95,0)" xlink:href="#bc"/></g><g id="X"><use transform="matrix(0.05,0,0,0.05,0,0)" xlink:href="#aS"/><use transform="matrix(0.05,0,0,0.05,9,0)" xlink:href="#aZ"/><use transform="matrix(0.05,0,0,0.05,12.949999999999998,0)" xlink:href="#aO"/><use transform="matrix(0.05,0,0,0.05,22.95,0)" xlink:href="#aJ"/><use transform="matrix(0.05,0,0,0.05,31.950000000000003,0)" xlink:href="#aH"/><use transform="matrix(0.05,0,0,0.05,41.95,0)" xlink:href="#ba"/><use transform="matrix(0.05,0,0,0.05,47.900000000000006,0)" xlink:href="#bc"/></g><g id="Y"><use transform="matrix(0.05,0,0,0.05,0,0)" xlink:href="#bd"/><use transform="matrix(0.05,0,0,0.05,10,0)" xlink:href="#aH"/><use transform="matrix(0.05,0,0,0.05,20,0)" xlink:href="#aK"/><use transform="matrix(0.05,0,0,0.05,25,0)" xlink:href="#aQ"/><use transform="matrix(0.05,0,0,0.05,35,0)" xlink:href="#aT"/><use transform="matrix(0.05,0,0,0.05,45,0)" xlink:href="#aH"/><use transform="matrix(0.05,0,0,0.05,55,0)" xlink:href="#aP"/><use transform="matrix(0.05,0,0,0.05,64,0)" xlink:href="#aM"/><use transform="matrix(0.05,0,0,0.05,67.95,0)" xlink:href="#aS"/><use transform="matrix(0.05,0,0,0.05,76.95,0)" xlink:href="#aH"/><use transform="matrix(0.05,0,0,0.05,86.95,0)" xlink:href="#aJ"/><use transform="matrix(0.05,0,0,0.05,95.95,0)" xlink:href="#ba"/><use transform="matrix(0.05,0,0,0.05,101.9,0)" xlink:href="#bc"/><use transform="matrix(0.05,0,0,0.05,107.85000000000001,0)" xlink:href="#aI"/><use transform="matrix(0.05,0,0,0.05,112.85000000000001,0)" xlink:href="#aV"/><use transform="matrix(0.05,0,0,0.05,118.85000000000001,0)" xlink:href="#aW"/></g><g id="Z"><use transform="matrix(0.05,0,0,0.05,0,0)" xlink:href="#bd"/><use transform="matrix(0.05,0,0,0.05,10,0)" xlink:href="#aH"/><use transform="matrix(0.05,0,0,0.05,20,0)" xlink:href="#aK"/><use transform="matrix(0.05,0,0,0.05,25,0)" xlink:href="#aQ"/><use transform="matrix(0.05,0,0,0.05,35,0)" xlink:href="#aN"/><use transform="matrix(0.05,0,0,0.05,45,0)" xlink:href="#aL"/><use transform="matrix(0.05,0,0,0.05,50.95,0)" xlink:href="#aO"/><use transform="matrix(0.05,0,0,0.05,60.95,0)" xlink:href="#aR"/><use transform="matrix(0.05,0,0,0.05,64.9,0)" xlink:href="#aH"/><use transform="matrix(0.05,0,0,0.05,74.9,0)" xlink:href="#aS"/><use transform="matrix(0.05,0,0,0.05,83.9,0)" xlink:href="#aK"/><use transform="matrix(0.05,0,0,0.05,88.9,0)" xlink:href="#aQ"/><use transform="matrix(0.05,0,0,0.05,98.9,0)" xlink:href="#aM"/><use transform="matrix(0.05,0,0,0.05,102.85000000000001,0)" xlink:href="#aT"/><use transform="matrix(0.05,0,0,0.05,112.85000000000001,0)" xlink:href="#ba"/><use transform="matrix(0.05,0,0,0.05,118.80000000000001,0)" xlink:href="#bc"/><use transform="matrix(0.05,0,0,0.05,124.75,0)" xlink:href="#aI"/><use transform="matrix(0.05,0,0,0.05,129.75,0)" xlink:href="#aJ"/><use transform="matrix(0.05,0,0,0.05,138.75,0)" xlink:href="#aK"/><use transform="matrix(0.05,0,0,0.05,143.75,0)" xlink:href="#aL"/></g><path fill="#333" d="M88-194c31-1 46 15 58 34l-1-101h50l1 261h-48c-2-10 0-23-3-31C134-8 116 4 84 4 32 4 16-41 15-95c0-56 19-97 73-99zm17 164c33 0 40-30 41-66 1-37-9-64-41-64s-38 30-39 65c0 43 13 65 39 65" id="br"/><g id="aa"><use transform="matrix(0.05,0,0,0.05,0,0)" xlink:href="#br"/><use transform="matrix(0.05,0,0,0.05,10.950000000000001,0)" xlink:href="#aC"/><use transform="matrix(0.05,0,0,0.05,20.950000000000003,0)" xlink:href="#aq"/><use transform="matrix(0.05,0,0,0.05,30.950000000000003,0)" xlink:href="#ar"/><use transform="matrix(0.05,0,0,0.05,35.95,0)" xlink:href="#az"/><use transform="matrix(0.05,0,0,0.05,45.95,0)" xlink:href="#aC"/></g><g id="ab"><use transform="matrix(0.05,0,0,0.05,0,0)" xlink:href="#aN"/><use transform="matrix(0.05,0,0,0.05,10,0)" xlink:href="#aL"/><use transform="matrix(0.05,0,0,0.05,15.949999999999998,0)" xlink:href="#aO"/><use transform="matrix(0.05,0,0,0.05,25.950000000000003,0)" xlink:href="#aR"/><use transform="matrix(0.05,0,0,0.05,29.899999999999995,0)" xlink:href="#aH"/><use transform="matrix(0.05,0,0,0.05,39.9,0)" xlink:href="#aS"/><use transform="matrix(0.05,0,0,0.05,48.9,0)" xlink:href="#aK"/><use transform="matrix(0.05,0,0,0.05,53.900000000000006,0)" xlink:href="#aQ"/><use transform="matrix(0.05,0,0,0.05,63.900000000000006,0)" xlink:href="#aM"/><use transform="matrix(0.05,0,0,0.05,67.85,0)" xlink:href="#aT"/><use transform="matrix(0.05,0,0,0.05,77.85,0)" xlink:href="#aI"/><use transform="matrix(0.05,0,0,0.05,82.85,0)" xlink:href="#aJ"/><use transform="matrix(0.05,0,0,0.05,91.85,0)" xlink:href="#aK"/><use transform="matrix(0.05,0,0,0.05,96.85,0)" xlink:href="#aL"/></g><g id="ac"><use transform="matrix(0.05,0,0,0.05,0,0)" xlink:href="#aE"/><use transform="matrix(0.05,0,0,0.05,10,0)" xlink:href="#aO"/><use transform="matrix(0.05,0,0,0.05,20,0)" xlink:href="#aT"/><use transform="matrix(0.05,0,0,0.05,30,0)" xlink:href="#aH"/><use transform="matrix(0.05,0,0,0.05,40,0)" xlink:href="#aQ"/><use transform="matrix(0.05,0,0,0.05,50,0)" xlink:href="#aK"/><use transform="matrix(0.05,0,0,0.05,55,0)" xlink:href="#bl"/><use transform="matrix(0.05,0,0,0.05,64,0)" xlink:href="#aN"/><use transform="matrix(0.05,0,0,0.05,74,0)" xlink:href="#aH"/><use transform="matrix(0.05,0,0,0.05,84,0)" xlink:href="#aI"/><use transform="matrix(0.05,0,0,0.05,89,0)" xlink:href="#aJ"/><use transform="matrix(0.05,0,0,0.05,98,0)" xlink:href="#aK"/><use transform="matrix(0.05,0,0,0.05,103,0)" xlink:href="#aL"/></g><g id="ad"><use transform="matrix(0.05,0,0,0.05,0,0)" xlink:href="#aE"/><use transform="matrix(0.05,0,0,0.05,10,0)" xlink:href="#aO"/><use transform="matrix(0.05,0,0,0.05,20,0)" xlink:href="#aT"/><use transform="matrix(0.05,0,0,0.05,30,0)" xlink:href="#aH"/><use transform="matrix(0.05,0,0,0.05,40,0)" xlink:href="#aQ"/><use transform="matrix(0.05,0,0,0.05,50,0)" xlink:href="#aM"/><use transform="matrix(0.05,0,0,0.05,53.95,0)" xlink:href="#aT"/><use transform="matrix(0.05,0,0,0.05,63.95,0)" xlink:href="#aI"/><use transform="matrix(0.05,0,0,0.05,68.95,0)" xlink:href="#aJ"/><use transform="matrix(0.05,0,0,0.05,77.95,0)" xlink:href="#aK"/><use transform="matrix(0.05,0,0,0.05,82.95,0)" xlink:href="#aL"/></g><g id="ae"><use transform="matrix(0.05,0,0,0.05,0,0)" xlink:href="#aK"/><use transform="matrix(0.05,0,0,0.05,5,0)" xlink:href="#aH"/><use transform="matrix(0.05,0,0,0.05,15,0)" xlink:href="#aZ"/><use transform="matrix(0.05,0,0,0.05,18.95,0)" xlink:href="#aE"/><use transform="matrix(0.05,0,0,0.05,28.950000000000003,0)" xlink:href="#aH"/><use transform="matrix(0.05,0,0,0.05,38.95,0)" xlink:href="#aK"/><use transform="matrix(0.05,0,0,0.05,43.95,0)" xlink:href="#aQ"/><use transform="matrix(0.05,0,0,0.05,53.95,0)" xlink:href="#aN"/><use transform="matrix(0.05,0,0,0.05,63.95,0)" xlink:href="#aO"/><use transform="matrix(0.05,0,0,0.05,73.95,0)" xlink:href="#aL"/><use transform="matrix(0.05,0,0,0.05,79.9,0)" xlink:href="#aK"/><use transform="matrix(0.05,0,0,0.05,84.9,0)" xlink:href="#aI"/><use transform="matrix(0.05,0,0,0.05,89.9,0)" xlink:href="#aJ"/><use transform="matrix(0.05,0,0,0.05,98.9,0)" xlink:href="#aK"/><use transform="matrix(0.05,0,0,0.05,103.9,0)" xlink:href="#aL"/></g><g id="af"><use transform="matrix(0.05,0,0,0.05,0,0)" xlink:href="#aE"/><use transform="matrix(0.05,0,0,0.05,10,0)" xlink:href="#aO"/><use transform="matrix(0.05,0,0,0.05,20,0)" xlink:href="#aT"/><use transform="matrix(0.05,0,0,0.05,30,0)" xlink:href="#aH"/><use transform="matrix(0.05,0,0,0.05,40,0)" xlink:href="#aQ"/><use transform="matrix(0.05,0,0,0.05,50,0)" xlink:href="#aK"/><use transform="matrix(0.05,0,0,0.05,55,0)" xlink:href="#bl"/><use transform="matrix(0.05,0,0,0.05,64,0)" xlink:href="#aN"/><use transform="matrix(0.05,0,0,0.05,74,0)" xlink:href="#aH"/><use transform="matrix(0.05,0,0,0.05,84,0)" xlink:href="#bb"/></g><g id="ag"><use transform="matrix(0.05,0,0,0.05,0,0)" xlink:href="#aN"/><use transform="matrix(0.05,0,0,0.05,10,0)" xlink:href="#aL"/><use transform="matrix(0.05,0,0,0.05,15.949999999999998,0)" xlink:href="#aO"/><use transform="matrix(0.05,0,0,0.05,25.950000000000003,0)" xlink:href="#aR"/><use transform="matrix(0.05,0,0,0.05,29.899999999999995,0)" xlink:href="#aH"/><use transform="matrix(0.05,0,0,0.05,39.9,0)" xlink:href="#aS"/><use transform="matrix(0.05,0,0,0.05,48.9,0)" xlink:href="#aK"/><use transform="matrix(0.05,0,0,0.05,53.900000000000006,0)" xlink:href="#aQ"/><use transform="matrix(0.05,0,0,0.05,63.900000000000006,0)" xlink:href="#aM"/><use transform="matrix(0.05,0,0,0.05,67.85,0)" xlink:href="#aT"/><use transform="matrix(0.05,0,0,0.05,77.85,0)" xlink:href="#bb"/></g><g id="ah"><use transform="matrix(0.05,0,0,0.05,0,0)" xlink:href="#aP"/><use transform="matrix(0.05,0,0,0.05,9,0)" xlink:href="#aF"/><use transform="matrix(0.05,0,0,0.05,19,0)" xlink:href="#aZ"/><use transform="matrix(0.05,0,0,0.05,22.95,0)" xlink:href="#aX"/><use transform="matrix(0.05,0,0,0.05,32.95,0)" xlink:href="#aH"/><use transform="matrix(0.05,0,0,0.05,42.95,0)" xlink:href="#aJ"/><use transform="matrix(0.05,0,0,0.05,51.95,0)" xlink:href="#aU"/><use transform="matrix(0.05,0,0,0.05,62.45,0)" xlink:href="#bk"/><use transform="matrix(0.05,0,0,0.05,75.4,0)" xlink:href="#aO"/><use transform="matrix(0.05,0,0,0.05,85.4,0)" xlink:href="#aE"/><use transform="matrix(0.05,0,0,0.05,95.4,0)" xlink:href="#aH"/><use transform="matrix(0.05,0,0,0.05,105.4,0)" xlink:href="#bc"/></g><g id="ai"><use transform="matrix(0.05,0,0,0.05,0,0)" xlink:href="#aJ"/><use transform="matrix(0.05,0,0,0.05,9,0)" xlink:href="#aK"/><use transform="matrix(0.05,0,0,0.05,14,0)" xlink:href="#aF"/><use transform="matrix(0.05,0,0,0.05,24,0)" xlink:href="#aL"/><use transform="matrix(0.05,0,0,0.05,29.950000000000003,0)" xlink:href="#aK"/><use transform="matrix(0.05,0,0,0.05,34.95,0)" xlink:href="#aQ"/><use transform="matrix(0.05,0,0,0.05,44.95,0)" xlink:href="#aT"/><use transform="matrix(0.05,0,0,0.05,54.95,0)" xlink:href="#aH"/><use transform="matrix(0.05,0,0,0.05,64.95,0)" xlink:href="#aP"/><use transform="matrix(0.05,0,0,0.05,73.95,0)" xlink:href="#aM"/><use transform="matrix(0.05,0,0,0.05,77.9,0)" xlink:href="#aS"/><use transform="matrix(0.05,0,0,0.05,86.9,0)" xlink:href="#aH"/><use transform="matrix(0.05,0,0,0.05,96.9,0)" xlink:href="#ba"/><use transform="matrix(0.05,0,0,0.05,102.85000000000001,0)" xlink:href="#bc"/></g><g id="aj"><use transform="matrix(0.05,0,0,0.05,0,0)" xlink:href="#aJ"/><use transform="matrix(0.05,0,0,0.05,9,0)" xlink:href="#aK"/><use transform="matrix(0.05,0,0,0.05,14,0)" xlink:href="#aO"/><use transform="matrix(0.05,0,0,0.05,24,0)" xlink:href="#aN"/><use transform="matrix(0.05,0,0,0.05,34,0)" xlink:href="#aQ"/><use transform="matrix(0.05,0,0,0.05,44,0)" xlink:href="#aT"/><use transform="matrix(0.05,0,0,0.05,54,0)" xlink:href="#aH"/><use transform="matrix(0.05,0,0,0.05,64,0)" xlink:href="#aP"/><use transform="matrix(0.05,0,0,0.05,73,0)" xlink:href="#aM"/><use transform="matrix(0.05,0,0,0.05,76.95,0)" xlink:href="#aS"/><use transform="matrix(0.05,0,0,0.05,85.95,0)" xlink:href="#aH"/><use transform="matrix(0.05,0,0,0.05,95.95,0)" xlink:href="#ba"/><use transform="matrix(0.05,0,0,0.05,101.9,0)" xlink:href="#bc"/></g><path fill="#333" d="M145-31C134-9 116 4 85 4 32 4 16-35 15-94c0-59 17-99 70-100 32-1 48 14 60 33 0-11-1-24 2-32h30l-1 268h-32zM93-21c41 0 51-33 51-76s-8-73-50-73c-40 0-46 35-46 75s5 74 45 74" id="bs"/><g id="ak"><use transform="matrix(0.05,0,0,0.05,0,0)" xlink:href="#aS"/><use transform="matrix(0.05,0,0,0.05,9,0)" xlink:href="#aL"/><use transform="matrix(0.05,0,0,0.05,14.949999999999998,0)" xlink:href="#aH"/><use transform="matrix(0.05,0,0,0.05,24.95,0)" xlink:href="#aF"/><use transform="matrix(0.05,0,0,0.05,34.95,0)" xlink:href="#aK"/><use transform="matrix(0.05,0,0,0.05,39.95,0)" xlink:href="#aH"/><use transform="matrix(0.05,0,0,0.05,49.95,0)" xlink:href="#aQ"/><use transform="matrix(0.05,0,0,0.05,59.95,0)" xlink:href="#aT"/><use transform="matrix(0.05,0,0,0.05,69.95,0)" xlink:href="#aH"/><use transform="matrix(0.05,0,0,0.05,79.95,0)" xlink:href="#aP"/><use transform="matrix(0.05,0,0,0.05,88.95,0)" xlink:href="#aM"/><use transform="matrix(0.05,0,0,0.05,92.9,0)" xlink:href="#aS"/><use transform="matrix(0.05,0,0,0.05,101.9,0)" xlink:href="#aH"/><use transform="matrix(0.05,0,0,0.05,111.9,0)" xlink:href="#aQ"/><use transform="matrix(0.05,0,0,0.05,121.9,0)" xlink:href="#bs"/><use transform="matrix(0.05,0,0,0.05,131.9,0)" xlink:href="#aH"/><use transform="matrix(0.05,0,0,0.05,141.9,0)" xlink:href="#aG"/><use transform="matrix(0.05,0,0,0.05,156.85,0)" xlink:href="#aX"/><use transform="matrix(0.05,0,0,0.05,166.85,0)" xlink:href="#ba"/><use transform="matrix(0.05,0,0,0.05,172.79999999999998,0)" xlink:href="#bc"/></g><g id="al"><use transform="matrix(0.05,0,0,0.05,0,0)" xlink:href="#be"/><use transform="matrix(0.05,0,0,0.05,12.950000000000001,0)" xlink:href="#aL"/><use transform="matrix(0.05,0,0,0.05,18.900000000000002,0)" xlink:href="#aM"/><use transform="matrix(0.05,0,0,0.05,22.85,0)" xlink:href="#aK"/><use transform="matrix(0.05,0,0,0.05,27.85,0)" xlink:href="#aH"/><use transform="matrix(0.05,0,0,0.05,37.85,0)" xlink:href="#aQ"/><use transform="matrix(0.05,0,0,0.05,47.85,0)" xlink:href="#aS"/><use transform="matrix(0.05,0,0,0.05,56.85,0)" xlink:href="#aO"/><use transform="matrix(0.05,0,0,0.05,66.85,0)" xlink:href="#aE"/><use transform="matrix(0.05,0,0,0.05,76.85,0)" xlink:href="#bf"/><use transform="matrix(0.05,0,0,0.05,81.85,0)" xlink:href="#aM"/><use transform="matrix(0.05,0,0,0.05,85.8,0)" xlink:href="#bd"/><use transform="matrix(0.05,0,0,0.05,95.8,0)" xlink:href="#ba"/><use transform="matrix(0.05,0,0,0.05,101.75,0)" xlink:href="#aS"/><use transform="matrix(0.05,0,0,0.05,110.75,0)" xlink:href="#aO"/><use transform="matrix(0.05,0,0,0.05,120.75,0)" xlink:href="#aE"/><use transform="matrix(0.05,0,0,0.05,130.75,0)" xlink:href="#bf"/><use transform="matrix(0.05,0,0,0.05,135.75,0)" xlink:href="#aM"/><use transform="matrix(0.05,0,0,0.05,139.7,0)" xlink:href="#bd"/><use transform="matrix(0.05,0,0,0.05,149.7,0)" xlink:href="#bb"/></g><path fill="#333" d="M123 10C108 53 80 86 19 72V37c35 8 53-11 59-39L3-190h52l48 148c12-52 28-100 44-148h51" id="bt"/><path fill="#333" d="M137-138c1-29-70-34-71-4 15 46 118 7 119 86 1 83-164 76-172 9l43-7c4 19 20 25 44 25 33 8 57-30 24-41C81-84 22-81 20-136c-2-80 154-74 161-7" id="bu"/><g id="am"><use transform="matrix(0.05,0,0,0.05,0,0)" xlink:href="#aB"/><use transform="matrix(0.05,0,0,0.05,10.950000000000001,0)" xlink:href="#bi"/><use transform="matrix(0.05,0,0,0.05,21.900000000000002,0)" xlink:href="#br"/><use transform="matrix(0.05,0,0,0.05,32.85,0)" xlink:href="#aC"/><use transform="matrix(0.05,0,0,0.05,42.85,0)" xlink:href="#ax"/><use transform="matrix(0.05,0,0,0.05,52.85,0)" xlink:href="#at"/><use transform="matrix(0.05,0,0,0.05,58.800000000000004,0)" xlink:href="#bt"/><use transform="matrix(0.05,0,0,0.05,68.80000000000001,0)" xlink:href="#bh"/><use transform="matrix(0.05,0,0,0.05,79.75000000000001,0)" xlink:href="#aC"/><use transform="matrix(0.05,0,0,0.05,89.75000000000001,0)" xlink:href="#bu"/></g><g id="an"><use transform="matrix(0.05,0,0,0.05,0,0)" xlink:href="#aE"/><use transform="matrix(0.05,0,0,0.05,10,0)" xlink:href="#aO"/><use transform="matrix(0.05,0,0,0.05,20,0)" xlink:href="#aT"/><use transform="matrix(0.05,0,0,0.05,30,0)" xlink:href="#aH"/><use transform="matrix(0.05,0,0,0.05,40,0)" xlink:href="#aQ"/><use transform="matrix(0.05,0,0,0.05,50,0)" xlink:href="#aK"/><use transform="matrix(0.05,0,0,0.05,55,0)" xlink:href="#bl"/><use transform="matrix(0.05,0,0,0.05,64,0)" xlink:href="#aN"/><use transform="matrix(0.05,0,0,0.05,74,0)" xlink:href="#aH"/><use transform="matrix(0.05,0,0,0.05,84,0)" xlink:href="#aJ"/></g><g id="ao"><use transform="matrix(0.05,0,0,0.05,0,0)" xlink:href="#bd"/><use transform="matrix(0.05,0,0,0.05,10,0)" xlink:href="#aH"/><use transform="matrix(0.05,0,0,0.05,20,0)" xlink:href="#aK"/><use transform="matrix(0.05,0,0,0.05,25,0)" xlink:href="#aQ"/><use transform="matrix(0.05,0,0,0.05,35,0)" xlink:href="#aE"/><use transform="matrix(0.05,0,0,0.05,45,0)" xlink:href="#aO"/><use transform="matrix(0.05,0,0,0.05,55,0)" xlink:href="#aT"/><use transform="matrix(0.05,0,0,0.05,65,0)" xlink:href="#aH"/><use transform="matrix(0.05,0,0,0.05,75,0)" xlink:href="#aQ"/><use transform="matrix(0.05,0,0,0.05,85,0)" xlink:href="#aK"/><use transform="matrix(0.05,0,0,0.05,90,0)" xlink:href="#bl"/><use transform="matrix(0.05,0,0,0.05,99,0)" xlink:href="#aN"/><use transform="matrix(0.05,0,0,0.05,109,0)" xlink:href="#aH"/><use transform="matrix(0.05,0,0,0.05,119,0)" xlink:href="#ba"/><use transform="matrix(0.05,0,0,0.05,124.95,0)" xlink:href="#aE"/><use transform="matrix(0.05,0,0,0.05,134.95,0)" xlink:href="#aF"/><use transform="matrix(0.05,0,0,0.05,144.95,0)" xlink:href="#aG"/><use transform="matrix(0.05,0,0,0.05,159.89999999999998,0)" xlink:href="#aH"/><use transform="matrix(0.05,0,0,0.05,169.89999999999998,0)" xlink:href="#bb"/></g><g id="ap"><use transform="matrix(0.05,0,0,0.05,0,0)" xlink:href="#bg"/><use transform="matrix(0.05,0,0,0.05,10,0)" xlink:href="#aT"/><use transform="matrix(0.05,0,0,0.05,20,0)" xlink:href="#aF"/><use transform="matrix(0.05,0,0,0.05,30,0)" xlink:href="#aQ"/><use transform="matrix(0.05,0,0,0.05,40,0)" xlink:href="#aT"/><use transform="matrix(0.05,0,0,0.05,50,0)" xlink:href="#aM"/><use transform="matrix(0.05,0,0,0.05,53.95,0)" xlink:href="#aJ"/><use transform="matrix(0.05,0,0,0.05,62.95,0)" xlink:href="#bm"/><use transform="matrix(0.05,0,0,0.05,71.95,0)" xlink:href="#aQ"/><use transform="matrix(0.05,0,0,0.05,81.95,0)" xlink:href="#aM"/><use transform="matrix(0.05,0,0,0.05,85.9,0)" xlink:href="#aG"/><use transform="matrix(0.05,0,0,0.05,100.85000000000001,0)" xlink:href="#aF"/><use transform="matrix(0.05,0,0,0.05,110.85000000000001,0)" xlink:href="#bd"/><use transform="matrix(0.05,0,0,0.05,120.85000000000001,0)" xlink:href="#aH"/><use transform="matrix(0.05,0,0,0.05,130.85000000000002,0)" xlink:href="#aU"/><use transform="matrix(0.05,0,0,0.05,141.35000000000002,0)" xlink:href="#bk"/><use transform="matrix(0.05,0,0,0.05,154.3,0)" xlink:href="#aO"/><use transform="matrix(0.05,0,0,0.05,164.3,0)" xlink:href="#aE"/><use transform="matrix(0.05,0,0,0.05,174.3,0)" xlink:href="#aH"/><use transform="matrix(0.05,0,0,0.05,184.3,0)" xlink:href="#bc"/></g></defs></g></svg>