<svg xmlns="http://www.w3.org/2000/svg" xmlns:xlink="http://www.w3.org/1999/xlink" xmlns:lucid="lucid" width="1032" height="798"><g transform="translate(-224 -228)" lucid:page-tab-id=".Q4MUjXso07N"><path d="M402.78 265a5 5 0 0 1 5-5h543.54a5 5 0 0 1 5 5v730a5 5 0 0 1-5 5H407.78a5 5 0 0 1-5-5z" stroke="#333" fill-opacity="0"/><use xlink:href="#a" transform="matrix(1,0,0,1,410.7771404371331,268) translate(211.0679012345679 15.11111111111111)"/><path d="M306.22 489.75c0 10.9-8.84 19.75-19.75 19.75-10.9 0-19.75-8.84-19.75-19.75 0-10.9 8.84-19.75 19.75-19.75 10.9 0 19.75 8.84 19.75 19.75z" stroke="#333" fill="#fff"/><path d="M286.47 509.5v50.3a17.25 17.25 0 0 0 2.67 9.22L326.47 628m-40-63.2l-40 63.2m0-98.75h80" stroke="#333" fill="none"/><path d="M246.47 475a5 5 0 0 1 5-5h70a5 5 0 0 1 5 5v170a5 5 0 0 1-5 5h-70a5 5 0 0 1-5-5z" fill="none"/><use xlink:href="#b" transform="matrix(1,0,0,1,166.46954966781595,627.9989633254834) translate(94.37037037037037 14.888888888888888)"/><path d="M1093.28 329.75c0 10.9-8.84 19.75-19.75 19.75-10.9 0-19.75-8.84-19.75-19.75 0-10.9 8.84-19.75 19.75-19.75 10.9 0 19.75 8.84 19.75 19.75z" stroke="#333" fill="#fff"/><path d="M1073.53 349.5v50.3a17.25 17.25 0 0 0 2.67 9.22l37.33 58.98m-40-63.2l-40 63.2m0-98.75h80" stroke="#333" fill="none"/><path d="M1033.53 315a5 5 0 0 1 5-5h70a5 5 0 0 1 5 5v170a5 5 0 0 1-5 5h-70a5 5 0 0 1-5-5z" fill="none"/><use xlink:href="#c" transform="matrix(1,0,0,1,953.530450332184,467.99896332548343) translate(89.92592592592592 14.888888888888888)"/><path d="M606.1 400c0 33.14-35.8 60-80 60-44.17 0-80-26.86-80-60s35.83-60 80-60c44.2 0 80 26.86 80 60z" stroke="#fff" fill="#dfe3e8"/><use xlink:href="#d" transform="matrix(1,0,0,1,470.11257693902303,363.99896332548343) translate(17.111111111111107 39.55555555555556)"/><path d="M606.1 560c0 33.14-35.8 60-80 60-44.17 0-80-26.86-80-60s35.83-60 80-60c44.2 0 80 26.86 80 60z" stroke="#fff" fill="#ced4db"/><use xlink:href="#e" transform="matrix(1,0,0,1,470.11257693902303,523.9989633254834) translate(-5.604938271604944 39.55555555555556)"/><path d="M920 500c0 33.14-35.82 60-80 60s-80-26.86-80-60 35.82-60 80-60 80 26.86 80 60z" stroke="#fff" fill="#ced4db"/><use xlink:href="#f" transform="matrix(1,0,0,1,784,464) translate(21.456790123456784 39.55555555555556)"/><path d="M920 630c0 33.14-35.82 60-80 60s-80-26.86-80-60 35.82-60 80-60 80 26.86 80 60z" stroke="#fff" fill="#ced4db"/><use xlink:href="#g" transform="matrix(1,0,0,1,784,594) translate(37.28395061728395 39.55555555555556)"/><path d="M287.33 559.64l146.75-148M287.34 559.63l-2.48 2.5" stroke="#333" fill="none"/><path d="M444.47 401.15l-6.75 13.4-6.58-6.54z" stroke="#333" fill="#333"/><path d="M287.48 560h141.75M287.5 560h-3.52" stroke="#333" fill="none"/><path d="M444 560l-14.27 4.63v-9.27z" stroke="#333" fill="#333"/><path d="M1056.65 400H623" stroke="#333" fill="none"/><path d="M1071.42 400l-14.27 4.63v-9.27zM608.23 400l14.27-4.64v9.27z" stroke="#333" fill="#333"/><path d="M603.8 577.32l4.76 1.07m4.77 1.05l9.54 2.13m4.76 1.06l9.54 2.13m4.76 1.06l9.54 2.13m4.77 1.06l9.53 2.12m4.77 1.07l9.53 2.13m4.77 1.07l9.53 2.12m4.77 1.07l9.54 2.1m4.76 1.08l9.54 2.12m4.76 1.07l9.54 2.12m4.77 1.05l4.76 1.07" stroke="#333" fill="none"/><path d="M603.92 576.84l-.22.97-.6-.12.2-.48.18-.46z" stroke="#333" stroke-width=".05" fill="#333"/><path d="M761.23 612.43l-14.94 1.42 2-9.05z" stroke="#333" fill="#333"/><path d="M606.1 740c0 33.14-35.8 60-80 60-44.17 0-80-26.86-80-60s35.83-60 80-60c44.2 0 80 26.86 80 60z" stroke="#fff" fill="#ced4db"/><use xlink:href="#h" transform="matrix(1,0,0,1,470.11257693902303,704) translate(36.29629629629629 28.888888888888886)"/><use xlink:href="#i" transform="matrix(1,0,0,1,470.11257693902303,704) translate(20.320987654320987 50.22222222222222)"/><path d="M435.04 727.48l-.75.67-148.15-164.92.74-.66z" stroke="#333" stroke-width=".05" fill="#333"/><path d="M286.9 562.58l-.74.66-2.35-2.6.75-.68z" stroke="#333" stroke-width=".05" fill="#333"/><path d="M444.53 738.8l-12.98-7.52 6.9-6.2z" fill="#333"/><path d="M445.6 740l-14.9-8.63 7.92-7.12zm-13.2-8.8l11.05 6.4-5.18-11.68z" stroke="#333" stroke-width=".05" fill="#333"/><path d="M921 630h11.2m11.22 0h22.4m11.22 0h11.2l1.9-.15 1.82-.44 1.74-.7 1.6-1 1.44-1.2 1.22-1.45.98-1.6.72-1.74.44-1.82v-9m.03-8.98l.02-17.98m0-9l.04-17.97m0-9l.03-17.97m0-9l.02-8.98.15-1.88.44-1.83.72-1.75.98-1.6 1.22-1.44 1.44-1.2 1.6-1 1.74-.7 1.83-.45 8.88-.03m8.87-.02l17.75-.05m8.87-.03l8.88-.02" stroke="#333" fill="none"/><path d="M921 630.5h-.52l.02-.5v-.5h.5z" stroke="#333" stroke-width=".05" fill="#333"/><path d="M1078.38 500l-14.26 4.64v-9.28z" stroke="#333" fill="#333"/><use xlink:href="#j" transform="matrix(1,0,0,1,1008.2500021449839,554.5539953204411) translate(0.0049999999999954525 14.4)"/><path d="M921 500h10.63m10.63 0h21.25m10.64 0h10.63l1.88-.15 1.83-.44 1.74-.7 1.6-1 1.43-1.2 1.23-1.45.98-1.6.72-1.74.44-1.82.02-8.66m0-8.65l.05-17.3m0-8.66l.04-17.3m0-8.65l.03-8.65.15-1.88.44-1.83.72-1.75.98-1.6 1.22-1.44 1.43-1.2 1.62-1 1.74-.7 1.83-.45 8.28-.03m8.3-.02l16.58-.05m8.3-.03l8.3-.02" stroke="#333" fill="none"/><path d="M921 500.5h-.52l.02-.5v-.5h.5z" stroke="#333" stroke-width=".05" fill="#333"/><path d="M1071.42 400l-14.27 4.63v-9.27z" stroke="#333" fill="#333"/><use xlink:href="#k" transform="matrix(1,0,0,1,910.817949914611,456.65898577836407) translate(0.005000000000002558 14.4)"/><use xlink:href="#l" transform="matrix(1,0,0,1,910.817949914611,456.65898577836407) translate(35.005 14.4)"/><path d="M603.18 541.23l4.68-1.23m4.7-1.24l9.35-2.47m4.7-1.24l9.36-2.47m4.68-1.25l9.37-2.47m4.7-1.23l9.35-2.47m4.7-1.24l9.35-2.47m4.7-1.23l9.35-2.47m4.68-1.24l9.37-2.47m4.68-1.23l9.37-2.48m4.68-1.23l9.36-2.47m4.68-1.24l4.68-1.22" stroke="#333" fill="none"/><path d="M603.32 541.7l-.42.13-.4-.93.57-.15z" stroke="#333" stroke-width=".05" fill="#333"/><path d="M757.94 500.4l-12.62 8.13-2.36-8.96z" stroke="#333" fill="#333"/><path d="M375.53 654.78l2.68 1.96.9 2.76h10.1v1h-10.82l-1.02-3.14-2.23-1.63-1.34-.22-2.7.9-1.62 2.22-.3 1.88h-12.5v-1h11.64l.2-1.28 1.97-2.68 3.2-1.05zm-30.9 5.72H320.5v-1h24.13zm-36.2 0H296.4v-1h12.06zm352.14-30h-8.93l-1.8.14-1.77.42-1.67.7-1.53.94-1.38 1.17-1.18 1.37-.94 1.54-.7 1.67-.4 1.74-.16 7.82-.15 1.94-.46 1.9-.74 1.82-1.02 1.67-.57.67v-1.65l.7-1.15.7-1.67.4-1.75.16-1.82.14-7.92.47-1.92.75-1.82 1-1.67 1.3-1.5 1.48-1.26 1.67-1.04 1.8-.75 1.92-.45 1.94-.15h8.97zm98.43 0h-8.95v-1H759zm-17.9 0h-17.9v-1h17.9zm-26.84 0h-17.9v-1h17.9zm-26.84 0h-17.9v-1h17.9z" stroke="#333" stroke-width=".05" fill="#333"/><path d="M759.5 630v.5h-.5v-1h.52z" fill="#333"/><path d="M759.52 630v.53h-.56v-1.05h.58zm-.5-.48v.96h.46v-.96z" stroke="#333" stroke-width=".05" fill="#333"/><path d="M295.88 664.64L281.62 660l14.26-4.64z" fill="#333"/><path d="M296.38 665.32L280 660l16.38-5.32zM283.24 660l12.14 3.95v-7.9z" stroke="#333" stroke-width=".05" fill="#333"/><g><use xlink:href="#m" transform="matrix(1,0,0,1,391.4150565985259,649.2) translate(0.0049999999999954525 14.4)"/><use xlink:href="#n" transform="matrix(1,0,0,1,391.4150565985259,649.2) translate(15.004999999999995 14.4)"/></g><defs><path fill="#333" d="M76-105c-23 59 45 89 88 55 12-10 18-24 22-45l30-153h51C238-143 259 4 118 4 48 4 11-39 25-112l26-136h52" id="o"/><path fill="#333" d="M144-137c-1-29-70-35-71-2 16 41 103 10 103 80C176 9 79 16 32-9 18-17 9-31 4-48l44-6c3 32 80 36 82 1-15-42-103-11-103-82 0-77 157-79 161-8" id="p"/><path fill="#333" d="M114-194c63-2 87 48 72 110H63c-3 28 1 55 31 54 21-1 32-13 37-29l44 13C160-14 137 4 91 4 41 4 11-22 11-73c0-71 33-119 103-121zm30 77c14-47-50-61-67-22-3 6-6 13-8 22h75" id="q"/><path fill="#333" d="M84-151c13-25 34-51 72-40l-8 41C67-170 71-64 56 0H6l36-190h47" id="r"/><path fill="#333" d="M67-101c-8 29-7 73 27 71 23-2 32-16 39-37l48 9C170-19 141 4 91 4 36 4 7-28 12-86c6-75 61-124 140-103 26 7 40 29 43 59l-50 4c-1-20-9-34-29-34-35 0-41 29-49 59" id="s"/><path fill="#333" d="M150-105c8-23 8-54-22-51-68 7-54 98-72 156H6l50-261h50L85-158c15-20 33-36 66-36 95 0 34 128 28 194h-49" id="t"/><path fill="#333" d="M72-63c-8 23 5 39 32 30L98-1C54 14 12-6 23-64l18-93H15l7-33h28l24-45h31l-8 45h35l-6 33H90" id="u"/><g id="a"><use transform="matrix(0.06172839506172839,0,0,0.06172839506172839,0,0)" xlink:href="#o"/><use transform="matrix(0.06172839506172839,0,0,0.06172839506172839,15.987654320987653,0)" xlink:href="#p"/><use transform="matrix(0.06172839506172839,0,0,0.06172839506172839,28.333333333333332,0)" xlink:href="#q"/><use transform="matrix(0.06172839506172839,0,0,0.06172839506172839,40.67901234567901,0)" xlink:href="#r"/><use transform="matrix(0.06172839506172839,0,0,0.06172839506172839,49.32098765432099,0)" xlink:href="#r"/><use transform="matrix(0.06172839506172839,0,0,0.06172839506172839,57.96296296296296,0)" xlink:href="#q"/><use transform="matrix(0.06172839506172839,0,0,0.06172839506172839,70.30864197530865,0)" xlink:href="#s"/><use transform="matrix(0.06172839506172839,0,0,0.06172839506172839,82.65432098765433,0)" xlink:href="#t"/><use transform="matrix(0.06172839506172839,0,0,0.06172839506172839,96.17283950617285,0)" xlink:href="#u"/><use transform="matrix(0.06172839506172839,0,0,0.06172839506172839,103.51851851851853,0)" xlink:href="#q"/></g><path fill="#333" d="M11 0l48-248h34L50-27h125l-5 27H11" id="v"/><path fill="#333" d="M111-194c62-3 86 47 72 106H45c-7 38 6 69 45 68 27-1 43-14 53-32l24 11C152-15 129 4 87 4 38 3 12-23 12-71c0-70 32-119 99-123zm44 81c14-66-71-72-95-28-4 8-8 17-11 28h106" id="w"/><path fill="#333" d="M67-158c15-20 31-36 64-36 94 0 33 127 27 194h-32l25-140c3-38-53-32-70-12C52-117 51-51 37 0H6l51-261h31" id="x"/><path fill="#333" d="M66-151c12-25 30-51 66-40l-6 26C45-176 58-65 38 0H6l36-190h30" id="y"/><g id="b"><use transform="matrix(0.04938271604938272,0,0,0.04938271604938272,0,0)" xlink:href="#v"/><use transform="matrix(0.04938271604938272,0,0,0.04938271604938272,9.876543209876544,0)" xlink:href="#w"/><use transform="matrix(0.04938271604938272,0,0,0.04938271604938272,19.75308641975309,0)" xlink:href="#x"/><use transform="matrix(0.04938271604938272,0,0,0.04938271604938272,29.629629629629633,0)" xlink:href="#y"/><use transform="matrix(0.04938271604938272,0,0,0.04938271604938272,35.50617283950618,0)" xlink:href="#w"/><use transform="matrix(0.04938271604938272,0,0,0.04938271604938272,45.38271604938272,0)" xlink:href="#y"/></g><path fill="#333" d="M194-120c59 52 2 134-86 124-53-6-90-18-98-63l31-7c8 30 29 43 70 43 46 0 84-17 71-62-32-43-135-20-137-98-3-89 178-90 191-16l-30 9c-8-48-127-53-127 5 0 53 81 35 115 65" id="z"/><path fill="#333" d="M44-68c0 29 11 47 38 47 30 0 42-19 51-41l28 9C148-21 126 4 82 4 31 4 10-29 12-85c3-77 74-140 146-93 12 8 15 23 18 40l-31 5c-1-22-13-36-36-36-52 0-65 49-65 101" id="A"/><path fill="#333" d="M67 3c-93-2-31-127-26-193h32L48-50c-3 39 53 32 70 12 30-34 30-101 43-152h32L157 0h-30c1-10 6-24 4-33-14 20-29 37-64 36zm73-217l6-33h30l-6 33h-30zm-68 0l6-33h31l-6 33H72" id="B"/><path fill="#333" d="M6 0l50-261h32L37 0H6" id="C"/><g id="c"><use transform="matrix(0.04938271604938272,0,0,0.04938271604938272,0,0)" xlink:href="#z"/><use transform="matrix(0.04938271604938272,0,0,0.04938271604938272,11.851851851851853,0)" xlink:href="#A"/><use transform="matrix(0.04938271604938272,0,0,0.04938271604938272,20.74074074074074,0)" xlink:href="#x"/><use transform="matrix(0.04938271604938272,0,0,0.04938271604938272,30.617283950617285,0)" xlink:href="#B"/><use transform="matrix(0.04938271604938272,0,0,0.04938271604938272,40.49382716049383,0)" xlink:href="#C"/><use transform="matrix(0.04938271604938272,0,0,0.04938271604938272,44.39506172839506,0)" xlink:href="#w"/><use transform="matrix(0.04938271604938272,0,0,0.04938271604938272,54.27160493827161,0)" xlink:href="#y"/></g><path fill="#282c33" d="M87-220l-18 92h140l-5 28H64L45 0H11l48-248h178l-5 28H87" id="D"/><path fill="#282c33" d="M50-231l6-30h32l-6 30H50zM6 0l37-190h31L37 0H6" id="E"/><path fill="#282c33" d="M6 0l50-261h32L37 0H6" id="F"/><path fill="#282c33" d="M111-194c62-3 86 47 72 106H45c-7 38 6 69 45 68 27-1 43-14 53-32l24 11C152-15 129 4 87 4 38 3 12-23 12-71c0-70 32-119 99-123zm44 81c14-66-71-72-95-28-4 8-8 17-11 28h106" id="G"/><path fill="#282c33" d="M55-144c13 50 104 24 104 88C159 21 15 23 1-39l26-10c6 40 102 42 102-4-13-50-104-23-104-87 0-71 143-71 148-8l-29 4c-5-35-85-37-89 0" id="H"/><path fill="#282c33" d="M66-151c12-25 30-51 66-40l-6 26C45-176 58-65 38 0H6l36-190h30" id="I"/><path fill="#282c33" d="M89 0H52L20-190h33L74-25l89-165h34" id="J"/><g id="d"><use transform="matrix(0.04938271604938272,0,0,0.04938271604938272,0,0)" xlink:href="#D"/><use transform="matrix(0.04938271604938272,0,0,0.04938271604938272,10.814814814814815,0)" xlink:href="#E"/><use transform="matrix(0.04938271604938272,0,0,0.04938271604938272,14.71604938271605,0)" xlink:href="#F"/><use transform="matrix(0.04938271604938272,0,0,0.04938271604938272,18.617283950617285,0)" xlink:href="#G"/><use transform="matrix(0.04938271604938272,0,0,0.04938271604938272,28.49382716049383,0)" xlink:href="#H"/><use transform="matrix(0.04938271604938272,0,0,0.04938271604938272,37.38271604938272,0)" xlink:href="#G"/><use transform="matrix(0.04938271604938272,0,0,0.04938271604938272,47.25925925925927,0)" xlink:href="#I"/><use transform="matrix(0.04938271604938272,0,0,0.04938271604938272,53.135802469135804,0)" xlink:href="#J"/><use transform="matrix(0.04938271604938272,0,0,0.04938271604938272,62.0246913580247,0)" xlink:href="#G"/><use transform="matrix(0.04938271604938272,0,0,0.04938271604938272,71.90123456790124,0)" xlink:href="#I"/></g><path fill="#282c33" d="M62-99C39-31 123 0 170-40s38-139 58-208h34C234-144 253 4 115 4 49 4 18-43 31-112l26-136h34" id="K"/><path fill="#282c33" d="M188 0h-37l-8-164L71 0H34L18-190h31l8 164 75-164h34l8 164 74-164h31" id="L"/><path fill="#282c33" d="M165-48c-4 18 1 34 23 27l-3 20c-29 8-62 0-52-35h-2C116-14 99 4 63 4 30 4 8-16 8-49c0-68 71-67 138-67 10-26 0-56-31-54-26 1-42 9-47 31l-32-5c8-67 160-71 144 15-5 28-9 54-15 81zM42-50c3 52 80 24 89-6 7-12 7-24 11-38-47 1-103-4-100 44" id="M"/><path fill="#282c33" d="M51-54c-9 22 5 41 31 30L79-1C43 14 10-4 19-52l22-115H19l5-23h22l19-43h21l-9 43h35l-4 23H73" id="N"/><path fill="#282c33" d="M67 3c-93-2-31-127-26-193h32L48-50c-3 39 53 32 70 12 30-34 30-101 43-152h32L157 0h-30c1-10 6-24 4-33-14 20-29 37-64 36" id="O"/><path fill="#282c33" d="M67-158c22-48 132-52 116 29L158 0h-32l25-140c3-38-53-32-70-12C52-117 51-52 38 0H6l36-190h30" id="P"/><path fill="#282c33" d="M103-194c29 0 47 14 56 36 2-11 5-23 8-32h30L160-5C157 61 82 97 21 62 9 55 4 45 1 30l28-7c7 42 83 31 92-3 4-16 9-38 13-55-13 20-29 36-62 36-40 0-60-25-60-64 0-71 23-131 91-131zm4 24c-53 0-58 54-61 104-2 27 10 44 36 44 49 0 65-50 67-102 1-29-15-46-42-46" id="Q"/><g id="e"><use transform="matrix(0.04938271604938272,0,0,0.04938271604938272,0,0)" xlink:href="#K"/><use transform="matrix(0.04938271604938272,0,0,0.04938271604938272,12.790123456790125,0)" xlink:href="#H"/><use transform="matrix(0.04938271604938272,0,0,0.04938271604938272,21.679012345679013,0)" xlink:href="#G"/><use transform="matrix(0.04938271604938272,0,0,0.04938271604938272,31.555555555555557,0)" xlink:href="#I"/><use transform="matrix(0.04938271604938272,0,0,0.04938271604938272,37.4320987654321,0)" xlink:href="#J"/><use transform="matrix(0.04938271604938272,0,0,0.04938271604938272,46.32098765432099,0)" xlink:href="#G"/><use transform="matrix(0.04938271604938272,0,0,0.04938271604938272,56.19753086419754,0)" xlink:href="#I"/><use transform="matrix(0.04938271604938272,0,0,0.04938271604938272,62.074074074074076,0)" xlink:href="#L"/><use transform="matrix(0.04938271604938272,0,0,0.04938271604938272,74.8641975308642,0)" xlink:href="#M"/><use transform="matrix(0.04938271604938272,0,0,0.04938271604938272,84.74074074074075,0)" xlink:href="#F"/><use transform="matrix(0.04938271604938272,0,0,0.04938271604938272,88.64197530864199,0)" xlink:href="#N"/><use transform="matrix(0.04938271604938272,0,0,0.04938271604938272,93.58024691358025,0)" xlink:href="#O"/><use transform="matrix(0.04938271604938272,0,0,0.04938271604938272,103.4567901234568,0)" xlink:href="#P"/><use transform="matrix(0.04938271604938272,0,0,0.04938271604938272,113.33333333333334,0)" xlink:href="#Q"/></g><path fill="#282c33" d="M52-101C46-14 166-7 216-51l9-45h-74l6-28h105l-18 87C217-12 181 4 130 4 60 4 18-31 18-101c0-106 78-167 188-146 30 6 48 27 59 54l-34 9c-10-26-31-41-67-40-75 1-107 50-112 123" id="R"/><path fill="#282c33" d="M67-162c32-53 139-36 121 50C175-51 163 2 97 4 68 4 52-11 42-31 38 6 28 39 22 75H-9l50-265h29c-1 10 0 20-3 28zm89 36c0-26-10-43-35-43-54 0-67 50-69 103-1 29 14 45 42 46 53 0 62-58 62-106" id="S"/><g id="f"><use transform="matrix(0.04938271604938272,0,0,0.04938271604938272,0,0)" xlink:href="#R"/><use transform="matrix(0.04938271604938272,0,0,0.04938271604938272,13.827160493827162,0)" xlink:href="#I"/><use transform="matrix(0.04938271604938272,0,0,0.04938271604938272,19.703703703703706,0)" xlink:href="#O"/><use transform="matrix(0.04938271604938272,0,0,0.04938271604938272,29.58024691358025,0)" xlink:href="#S"/><use transform="matrix(0.04938271604938272,0,0,0.04938271604938272,39.4567901234568,0)" xlink:href="#S"/><use transform="matrix(0.04938271604938272,0,0,0.04938271604938272,49.33333333333334,0)" xlink:href="#G"/><use transform="matrix(0.04938271604938272,0,0,0.04938271604938272,59.209876543209894,0)" xlink:href="#P"/></g><path fill="#282c33" d="M232-93c-1 65-40 97-104 97C67 4 28-28 28-90v-158h33c8 89-33 224 67 224 102 0 64-133 71-224h33v155" id="T"/><path fill="#282c33" d="M135-143c-3-34-86-38-87 0 15 53 115 12 119 90S17 21 10-45l28-5c4 36 97 45 98 0-10-56-113-15-118-90-4-57 82-63 122-42 12 7 21 19 24 35" id="U"/><path fill="#282c33" d="M100-194c63 0 86 42 84 106H49c0 40 14 67 53 68 26 1 43-12 49-29l28 8c-11 28-37 45-77 45C44 4 14-33 15-96c1-61 26-98 85-98zm52 81c6-60-76-77-97-28-3 7-6 17-6 28h103" id="V"/><path fill="#282c33" d="M114-163C36-179 61-72 57 0H25l-1-190h30c1 12-1 29 2 39 6-27 23-49 58-41v29" id="W"/><g id="g"><use transform="matrix(0.04938271604938272,0,0,0.04938271604938272,0,0)" xlink:href="#T"/><use transform="matrix(0.04938271604938272,0,0,0.04938271604938272,12.790123456790125,0)" xlink:href="#U"/><use transform="matrix(0.04938271604938272,0,0,0.04938271604938272,21.679012345679013,0)" xlink:href="#V"/><use transform="matrix(0.04938271604938272,0,0,0.04938271604938272,31.555555555555557,0)" xlink:href="#W"/></g><path fill="#282c33" d="M219-77C219 17 104-2 11 0l48-248c73 2 169-15 169 57 0 38-24 54-60 60 29 5 51 21 51 54zm-26-111c0-44-62-31-105-33l-16 79c55 0 121 9 121-46zm-7 110c-1-49-69-36-119-38L50-27c61-1 137 12 136-51" id="X"/><path fill="#282c33" d="M133-28C103 26-5 8 13-77c13-62 24-115 90-117 29-1 46 15 56 35l19-102h32L160 0h-30zM45-64c-2 27 10 43 35 43 54-1 69-50 69-103 0-29-15-46-42-46-53-1-58 58-62 106" id="Y"/><g id="h"><use transform="matrix(0.04938271604938272,0,0,0.04938271604938272,0,0)" xlink:href="#X"/><use transform="matrix(0.04938271604938272,0,0,0.04938271604938272,11.851851851851853,0)" xlink:href="#O"/><use transform="matrix(0.04938271604938272,0,0,0.04938271604938272,21.7283950617284,0)" xlink:href="#E"/><use transform="matrix(0.04938271604938272,0,0,0.04938271604938272,25.629629629629633,0)" xlink:href="#F"/><use transform="matrix(0.04938271604938272,0,0,0.04938271604938272,29.530864197530867,0)" xlink:href="#Y"/></g><path fill="#282c33" d="M151-220L108 0H75l42-220H32l6-28h203l-5 28h-85" id="Z"/><path fill="#282c33" d="M30-147c31-64 166-65 159 27C183-49 158 1 86 4 9 8 1-88 30-147zM88-20c53 0 68-48 68-100 0-31-11-51-44-50-52 1-68 46-68 97 0 32 13 53 44 53" id="aa"/><path fill="#282c33" d="M198-190L69 30C53 58 25 83-20 72c4-11-1-27 19-22 33-1 43-29 59-52L20-190h32L79-34l84-156h35" id="ab"/><g id="i"><use transform="matrix(0.04938271604938272,0,0,0.04938271604938272,0,0)" xlink:href="#Z"/><use transform="matrix(0.04938271604938272,0,0,0.04938271604938272,9.185185185185185,0)" xlink:href="#aa"/><use transform="matrix(0.04938271604938272,0,0,0.04938271604938272,19.061728395061728,0)" xlink:href="#S"/><use transform="matrix(0.04938271604938272,0,0,0.04938271604938272,28.938271604938276,0)" xlink:href="#aa"/><use transform="matrix(0.04938271604938272,0,0,0.04938271604938272,38.81481481481482,0)" xlink:href="#F"/><use transform="matrix(0.04938271604938272,0,0,0.04938271604938272,42.71604938271605,0)" xlink:href="#aa"/><use transform="matrix(0.04938271604938272,0,0,0.04938271604938272,52.592592592592595,0)" xlink:href="#Q"/><use transform="matrix(0.04938271604938272,0,0,0.04938271604938272,62.46913580246914,0)" xlink:href="#ab"/></g><path fill="#333" d="M30 0v-248h33v221h125V0H30" id="ac"/><path fill="#333" d="M100-194c62-1 85 37 85 99 1 63-27 99-86 99S16-35 15-95c0-66 28-99 85-99zM99-20c44 1 53-31 53-75 0-43-8-75-51-75s-53 32-53 75 10 74 51 75zm22-194v-33h29v33h-29zm-69 0v-33h29v33H52" id="ad"/><path fill="#333" d="M135-143c-3-34-86-38-87 0 15 53 115 12 119 90S17 21 10-45l28-5c4 36 97 45 98 0-10-56-113-15-118-90-4-57 82-63 122-42 12 7 21 19 24 35" id="ae"/><path fill="#333" d="M96-169c-40 0-48 33-48 73s9 75 48 75c24 0 41-14 43-38l32 2c-6 37-31 61-74 61-59 0-76-41-82-99-10-93 101-131 147-64 4 7 5 14 7 22l-32 3c-4-21-16-35-41-35" id="af"/><path fill="#333" d="M106-169C34-169 62-67 57 0H25v-261h32l-1 103c12-21 28-36 61-36 89 0 53 116 60 194h-32v-121c2-32-8-49-39-48" id="ag"/><path fill="#333" d="M100-194c63 0 86 42 84 106H49c0 40 14 67 53 68 26 1 43-12 49-29l28 8c-11 28-37 45-77 45C44 4 14-33 15-96c1-61 26-98 85-98zm52 81c6-60-76-77-97-28-3 7-6 17-6 28h103" id="ah"/><path fill="#333" d="M117-194c89-4 53 116 60 194h-32v-121c0-31-8-49-39-48C34-167 62-67 57 0H25l-1-190h30c1 10-1 24 2 32 11-22 29-35 61-36" id="ai"/><path fill="#333" d="M0 4l72-265h28L28 4H0" id="aj"/><path fill="#333" d="M114-163C36-179 61-72 57 0H25l-1-190h30c1 12-1 29 2 39 6-27 23-49 58-41v29" id="ak"/><path fill="#333" d="M59-47c-2 24 18 29 38 22v24C64 9 27 4 27-40v-127H5v-23h24l9-43h21v43h35v23H59v120" id="al"/><path fill="#333" d="M24 0v-261h32V0H24" id="am"/><path fill="#333" d="M115-194c53 0 69 39 70 98 0 66-23 100-70 100C84 3 66-7 56-30L54 0H23l1-261h32v101c10-23 28-34 59-34zm-8 174c40 0 45-34 45-75 0-40-5-75-45-74-42 0-51 32-51 76 0 43 10 73 51 73" id="an"/><path fill="#333" d="M141-36C126-15 110 5 73 4 37 3 15-17 15-53c-1-64 63-63 125-63 3-35-9-54-41-54-24 1-41 7-42 31l-33-3c5-37 33-52 76-52 45 0 72 20 72 64v82c-1 20 7 32 28 27v20c-31 9-61-2-59-35zM48-53c0 20 12 33 32 33 41-3 63-29 60-74-43 2-92-5-92 41" id="ao"/><path fill="#333" d="M24-231v-30h32v30H24zM24 0v-190h32V0H24" id="ap"/><g id="j"><use transform="matrix(0.05,0,0,0.05,0,0)" xlink:href="#ac"/><use transform="matrix(0.05,0,0,0.05,10,0)" xlink:href="#ad"/><use transform="matrix(0.05,0,0,0.05,20,0)" xlink:href="#ae"/><use transform="matrix(0.05,0,0,0.05,29,0)" xlink:href="#af"/><use transform="matrix(0.05,0,0,0.05,38,0)" xlink:href="#ag"/><use transform="matrix(0.05,0,0,0.05,48,0)" xlink:href="#ah"/><use transform="matrix(0.05,0,0,0.05,58,0)" xlink:href="#ai"/><use transform="matrix(0.05,0,0,0.05,68,0)" xlink:href="#aj"/><use transform="matrix(0.05,0,0,0.05,73,0)" xlink:href="#ah"/><use transform="matrix(0.05,0,0,0.05,83,0)" xlink:href="#ak"/><use transform="matrix(0.05,0,0,0.05,88.95,0)" xlink:href="#ae"/><use transform="matrix(0.05,0,0,0.05,97.95,0)" xlink:href="#al"/><use transform="matrix(0.05,0,0,0.05,102.95,0)" xlink:href="#ah"/><use transform="matrix(0.05,0,0,0.05,112.95,0)" xlink:href="#am"/><use transform="matrix(0.05,0,0,0.05,116.9,0)" xlink:href="#am"/><use transform="matrix(0.05,0,0,0.05,120.85000000000001,0)" xlink:href="#ah"/><use transform="matrix(0.05,0,0,0.05,130.85000000000002,0)" xlink:href="#ai"/><use transform="matrix(0.05,0,0,0.05,140.85000000000002,0)" xlink:href="#aj"/><use transform="matrix(0.05,0,0,0.05,145.85000000000002,0)" xlink:href="#an"/><use transform="matrix(0.05,0,0,0.05,155.85000000000002,0)" xlink:href="#ah"/><use transform="matrix(0.05,0,0,0.05,165.85000000000002,0)" xlink:href="#ao"/><use transform="matrix(0.05,0,0,0.05,175.85000000000002,0)" xlink:href="#ak"/><use transform="matrix(0.05,0,0,0.05,181.8,0)" xlink:href="#an"/><use transform="matrix(0.05,0,0,0.05,191.8,0)" xlink:href="#ah"/><use transform="matrix(0.05,0,0,0.05,201.8,0)" xlink:href="#ap"/><use transform="matrix(0.05,0,0,0.05,205.75,0)" xlink:href="#al"/><use transform="matrix(0.05,0,0,0.05,210.75,0)" xlink:href="#ah"/><use transform="matrix(0.05,0,0,0.05,220.75,0)" xlink:href="#ai"/></g><path fill="#333" d="M101-234c-31-9-42 10-38 44h38v23H63V0H32v-167H5v-23h27c-7-52 17-82 69-68v24" id="aq"/><path fill="#333" d="M85 4C-4 8 31-112 24-190h32v120c0 31 7 50 39 49 72-2 45-101 50-169h31l1 190h-30c-1-10 1-25-2-33-11 22-28 36-60 37zm34-218v-33h29v33h-29zm-69 0v-33h29v33H50" id="ar"/><path fill="#333" d="M177-190C167-65 218 103 67 71c-23-6-38-20-44-43l32-5c15 47 100 32 89-28v-30C133-14 115 1 83 1 29 1 15-40 15-95c0-56 16-97 71-98 29-1 48 16 59 35 1-10 0-23 2-32h30zM94-22c36 0 50-32 50-73 0-42-14-75-50-75-39 0-46 34-46 75s6 73 46 73" id="as"/><g id="k"><use transform="matrix(0.05,0,0,0.05,0,0)" xlink:href="#aq"/><use transform="matrix(0.05,0,0,0.05,5,0)" xlink:href="#ar"/><use transform="matrix(0.05,0,0,0.05,15,0)" xlink:href="#as"/><use transform="matrix(0.05,0,0,0.05,25,0)" xlink:href="#al"/></g><path fill="#333" d="M9 0v-24l116-142H16v-24h144v24L44-24h123V0H9" id="at"/><path fill="#333" d="M84 4C-5 8 30-112 23-190h32v120c0 31 7 50 39 49 72-2 45-101 50-169h31l1 190h-30c-1-10 1-25-2-33-11 22-28 36-60 37" id="au"/><g id="l"><use transform="matrix(0.05,0,0,0.05,0,0)" xlink:href="#ag"/><use transform="matrix(0.05,0,0,0.05,10,0)" xlink:href="#ap"/><use transform="matrix(0.05,0,0,0.05,13.949999999999998,0)" xlink:href="#ai"/><use transform="matrix(0.05,0,0,0.05,23.95,0)" xlink:href="#at"/><use transform="matrix(0.05,0,0,0.05,32.95,0)" xlink:href="#au"/></g><g id="n"><use transform="matrix(0.05,0,0,0.05,0,0)" xlink:href="#ac"/><use transform="matrix(0.05,0,0,0.05,10,0)" xlink:href="#ad"/><use transform="matrix(0.05,0,0,0.05,20,0)" xlink:href="#ae"/><use transform="matrix(0.05,0,0,0.05,29,0)" xlink:href="#af"/><use transform="matrix(0.05,0,0,0.05,38,0)" xlink:href="#ag"/><use transform="matrix(0.05,0,0,0.05,48,0)" xlink:href="#ah"/><use transform="matrix(0.05,0,0,0.05,58,0)" xlink:href="#ai"/><use transform="matrix(0.05,0,0,0.05,68,0)" xlink:href="#aj"/><use transform="matrix(0.05,0,0,0.05,73,0)" xlink:href="#ah"/><use transform="matrix(0.05,0,0,0.05,83,0)" xlink:href="#ak"/><use transform="matrix(0.05,0,0,0.05,88.95,0)" xlink:href="#ae"/><use transform="matrix(0.05,0,0,0.05,97.95,0)" xlink:href="#al"/><use transform="matrix(0.05,0,0,0.05,102.95,0)" xlink:href="#ah"/><use transform="matrix(0.05,0,0,0.05,112.95,0)" xlink:href="#am"/><use transform="matrix(0.05,0,0,0.05,116.9,0)" xlink:href="#am"/><use transform="matrix(0.05,0,0,0.05,120.85000000000001,0)" xlink:href="#ah"/><use transform="matrix(0.05,0,0,0.05,130.85000000000002,0)" xlink:href="#ai"/><use transform="matrix(0.05,0,0,0.05,140.85000000000002,0)" xlink:href="#aj"/><use transform="matrix(0.05,0,0,0.05,145.85000000000002,0)" xlink:href="#an"/><use transform="matrix(0.05,0,0,0.05,155.85000000000002,0)" xlink:href="#ah"/><use transform="matrix(0.05,0,0,0.05,165.85000000000002,0)" xlink:href="#ao"/><use transform="matrix(0.05,0,0,0.05,175.85000000000002,0)" xlink:href="#ak"/><use transform="matrix(0.05,0,0,0.05,181.8,0)" xlink:href="#an"/><use transform="matrix(0.05,0,0,0.05,191.8,0)" xlink:href="#ah"/><use transform="matrix(0.05,0,0,0.05,201.8,0)" xlink:href="#ap"/><use transform="matrix(0.05,0,0,0.05,205.75,0)" xlink:href="#al"/><use transform="matrix(0.05,0,0,0.05,210.75,0)" xlink:href="#ah"/><use transform="matrix(0.05,0,0,0.05,220.75,0)" xlink:href="#ai"/></g></defs></g></svg>